<svg width="7126" height="2000" viewBox="0 0 7126 2000" fill="none" xmlns="http://www.w3.org/2000/svg">
<path d="M4747.31 1594.16V1057.72H4992.54C5028.82 1057.72 5061.77 1065.64 5091.4 1081.47C5121.54 1097.31 5145.3 1119.28 5162.67 1147.38C5180.55 1175.48 5189.49 1207.92 5189.49 1244.71C5189.49 1278.94 5181.32 1309.84 5164.97 1337.43C5148.62 1364.51 5127.16 1386.48 5100.6 1403.34L5143.51 1476.14C5146.07 1479.72 5148.88 1482.53 5151.94 1484.57C5155.52 1486.61 5160.12 1487.64 5165.74 1487.64H5213.25V1594.16H5138.15C5115.16 1594.16 5094.21 1588.79 5075.31 1578.06C5056.41 1566.82 5041.59 1552.26 5030.86 1534.38L4973.39 1432.46C4969.81 1432.46 4965.98 1432.46 4961.89 1432.46C4958.31 1432.46 4954.48 1432.46 4950.39 1432.46H4876.06V1594.16H4747.31ZM4876.06 1325.94H4977.98C4992.8 1325.94 5006.59 1322.87 5019.37 1316.74C5032.14 1310.1 5042.1 1300.9 5049.25 1289.15C5056.92 1276.89 5060.75 1262.33 5060.75 1245.47C5060.75 1228.61 5056.92 1214.31 5049.25 1202.56C5041.59 1190.3 5031.37 1181.1 5018.6 1174.97C5006.34 1168.33 4992.8 1165.01 4977.98 1165.01H4876.06V1325.94Z" fill="#FD2A7A"/>
<path d="M5459.29 1594.16C5414.85 1594.16 5375.76 1585.98 5342.04 1569.63C5308.32 1552.78 5282.01 1529.78 5263.11 1500.66C5244.72 1471.03 5235.52 1436.8 5235.52 1397.97C5235.52 1355.06 5244.46 1318.27 5262.34 1287.62C5280.22 1256.97 5303.98 1233.47 5333.61 1217.12C5363.76 1200.26 5396.96 1191.83 5433.24 1191.83C5474.62 1191.83 5509.11 1200.51 5536.69 1217.88C5564.79 1235.25 5586 1259.01 5600.3 1289.15C5614.61 1318.79 5621.76 1352.76 5621.76 1391.08C5621.76 1397.72 5621.25 1405.64 5620.23 1414.83C5619.71 1423.52 5618.95 1430.42 5617.93 1435.52H5360.44C5363.5 1448.81 5369.38 1460.05 5378.06 1469.24C5386.75 1478.44 5397.73 1485.34 5411.01 1489.94C5424.3 1494.02 5439.11 1496.07 5455.46 1496.07H5575.78V1594.16H5459.29ZM5357.37 1361.19H5506.81C5505.79 1353.02 5504.25 1345.1 5502.21 1337.43C5500.16 1329.77 5496.84 1323.13 5492.25 1317.51C5488.16 1311.38 5483.31 1306.27 5477.69 1302.18C5472.07 1297.58 5465.42 1294.01 5457.76 1291.45C5450.61 1288.9 5442.43 1287.62 5433.24 1287.62C5421.49 1287.62 5411.01 1289.66 5401.82 1293.75C5392.62 1297.84 5384.96 1303.46 5378.83 1310.61C5372.7 1317.25 5367.84 1325.17 5364.27 1334.37C5361.2 1343.05 5358.9 1351.99 5357.37 1361.19Z" fill="#FD2A7A"/>
<path d="M5691.74 1594.16V1499.9H5881.02C5886.13 1499.9 5890.73 1498.88 5894.82 1496.83C5898.9 1494.28 5902.22 1490.96 5904.78 1486.87C5907.33 1482.78 5908.61 1478.44 5908.61 1473.84C5908.61 1468.73 5907.33 1464.13 5904.78 1460.05C5902.22 1455.96 5898.9 1452.9 5894.82 1450.85C5890.73 1448.3 5886.13 1447.02 5881.02 1447.02H5812.05C5786.51 1447.02 5763.26 1442.93 5742.31 1434.76C5721.88 1426.07 5705.53 1412.79 5693.27 1394.91C5681.52 1376.52 5675.64 1352.76 5675.64 1323.64C5675.64 1301.16 5681.01 1280.72 5691.74 1262.33C5702.97 1243.94 5718.05 1229.12 5736.95 1217.88C5756.36 1206.64 5777.56 1201.02 5800.56 1201.02H5989.84V1296.05H5818.95C5811.8 1296.05 5805.66 1298.35 5800.56 1302.95C5795.96 1307.55 5793.66 1313.17 5793.66 1319.81C5793.66 1326.96 5795.96 1333.09 5800.56 1338.2C5805.66 1342.8 5811.8 1345.1 5818.95 1345.1H5886.39C5915 1345.1 5939.52 1349.44 5959.95 1358.12C5980.9 1366.3 5996.99 1379.58 6008.23 1397.97C6019.98 1416.37 6025.86 1440.12 6025.86 1469.24C6025.86 1492.23 6019.98 1513.18 6008.23 1532.08C5996.99 1550.99 5981.67 1566.06 5962.25 1577.3C5943.35 1588.54 5921.89 1594.16 5897.88 1594.16H5691.74Z" fill="#FD2A7A"/>
<path d="M6291.99 1603.35C6251.63 1603.35 6215.36 1594.41 6183.17 1576.53C6150.98 1558.65 6125.44 1534.13 6106.54 1502.96C6088.14 1471.8 6078.95 1436.8 6078.95 1397.97C6078.95 1358.64 6088.14 1323.64 6106.54 1292.99C6125.44 1261.82 6150.98 1237.3 6183.17 1219.42C6215.36 1201.02 6251.63 1191.83 6291.99 1191.83C6332.35 1191.83 6368.37 1201.02 6400.04 1219.42C6432.23 1237.3 6457.52 1261.82 6475.91 1292.99C6494.81 1323.64 6504.27 1358.64 6504.27 1397.97C6504.27 1436.8 6494.81 1471.8 6475.91 1502.96C6457.52 1534.13 6432.23 1558.65 6400.04 1576.53C6367.86 1594.41 6331.84 1603.35 6291.99 1603.35ZM6291.99 1499.9C6310.89 1499.9 6327.24 1495.3 6341.04 1486.1C6354.83 1476.91 6365.56 1464.65 6373.22 1449.32C6380.89 1433.99 6384.72 1416.62 6384.72 1397.21C6384.72 1378.3 6380.89 1361.19 6373.22 1345.86C6365.56 1330.54 6354.83 1318.27 6341.04 1309.08C6327.24 1299.88 6310.89 1295.28 6291.99 1295.28C6273.09 1295.28 6256.48 1299.88 6242.18 1309.08C6228.38 1318.27 6217.65 1330.54 6209.99 1345.86C6202.33 1361.19 6198.5 1378.3 6198.5 1397.21C6198.5 1416.62 6202.33 1433.99 6209.99 1449.32C6217.65 1464.65 6228.38 1476.91 6242.18 1486.1C6256.48 1495.3 6273.09 1499.9 6291.99 1499.9Z" fill="#FD2A7A"/>
<path d="M6571.74 1594.16V1316.74C6571.74 1280.98 6581.96 1252.88 6602.39 1232.44C6622.83 1212.01 6651.18 1201.79 6687.46 1201.79H6801.64V1298.35H6716.58C6709.43 1298.35 6703.3 1300.9 6698.19 1306.01C6693.08 1310.61 6690.52 1316.74 6690.52 1324.41V1594.16H6571.74Z" fill="#FD2A7A"/>
<path d="M7013.74 1594.16C6977.47 1594.16 6949.11 1583.94 6928.68 1563.5C6908.24 1542.56 6898.02 1514.46 6898.02 1479.21V1105.23H7017.57V1472.31C7017.57 1478.44 7019.62 1483.8 7023.7 1488.4C7028.3 1492.49 7033.66 1494.53 7039.8 1494.53H7125.63V1594.16H7013.74ZM6833.65 1298.35V1201.02H7125.63V1298.35H6833.65Z" fill="#FD2A7A"/>
<path d="M279.939 910.482C321.829 831.79 418.558 608.938 357.903 318.636L429.748 366.532C453.31 465.024 494.492 657.175 410.047 927.932C407.574 935.861 400.175 941.288 391.87 941.288H297.89C282.592 941.288 272.751 923.986 279.939 910.482Z" fill="#111111"/>
<path d="M555.715 262.118C548.847 249.967 557.803 234.457 571.337 237.868C610.692 247.787 647.328 264.428 679.918 286.689C697.91 298.979 723.506 281.609 710.282 264.292C647.883 182.579 549.479 129.924 438.848 129.924C437.606 129.924 436.397 129.956 435.202 130.004C428.802 130.26 422.854 127.181 419.153 121.952C401.019 96.3311 378.878 72.146 351.677 51.8531C321.573 29.0918 288.843 12.2084 254.829 0.883448C237.067 -5.03028 229.227 20.278 244.389 31.2577C260.201 43.644 274.563 56.9003 287.555 70.7873C299.165 83.1968 288.157 102.556 271.165 102.294C207.2 101.307 142.922 117.987 84.8941 154.351C53.4032 174.215 26.2001 198.611 3.59488 226.116C-8.49605 240.827 12.4928 257.295 28.3764 246.791C76.9382 216.712 130.984 200.617 184.497 196.847C202.184 195.601 209.504 217.961 196.994 230.525C135.506 292.273 97.3472 377.33 97.3472 471.425C97.3472 508.873 103.397 544.963 114.618 578.755C120.671 596.982 146.201 587.861 146.201 568.655C146.201 419.382 241.891 292.653 375.559 246.176C380.751 244.371 386.486 245.03 391.135 247.962C427.529 270.915 460.741 301.019 487.223 338.273C488.806 340.648 490.471 342.94 492.15 345.252C494.535 348.537 496.949 351.862 499.197 355.516C537.666 416.702 554.105 485.55 550.817 552.733C549.756 574.408 577.653 586.826 585.473 566.583C622.956 469.553 615.453 356.79 555.715 262.118Z" fill="#111111"/>
<path d="M6833.65 1201.02H7125.63V1298.35H6833.65V1201.02Z" fill="#FD2A7A"/>
<path d="M1229.75 974.991C1160.52 974.222 1098.6 963.837 1043.99 943.838C989.374 923.839 942.837 895.763 904.377 859.611C865.917 823.458 836.303 781.152 815.535 732.693C795.535 683.464 785.536 629.62 785.536 571.16C785.536 512.701 795.535 459.242 815.535 410.782C836.303 361.553 865.917 318.863 904.377 282.71C942.837 246.558 989.374 218.482 1043.99 198.483C1098.6 177.714 1160.52 167.33 1229.75 167.33H1353.21V346.169H1236.67C1200.52 346.169 1168.21 351.938 1139.75 363.476C1112.06 375.014 1088.6 391.167 1069.37 411.936C1050.14 431.935 1035.53 455.78 1025.53 483.472C1015.53 510.394 1010.53 539.623 1010.53 571.16C1010.53 602.698 1015.53 632.312 1025.53 660.003C1035.53 686.925 1050.14 710.77 1069.37 731.539C1088.6 751.538 1112.06 767.307 1139.75 778.845C1168.21 790.383 1200.52 796.152 1236.67 796.152H1353.21V974.991H1229.75Z" fill="black"/>
<path d="M1746.51 988.836C1686.51 988.836 1631.9 975.76 1582.67 949.607C1534.21 922.685 1495.36 885.763 1466.13 838.842C1436.9 791.921 1422.29 738.077 1422.29 677.31C1422.29 617.312 1436.9 563.853 1466.13 516.932C1495.36 470.011 1534.59 433.473 1583.82 407.321C1633.05 380.399 1687.66 366.938 1747.66 366.938C1807.66 366.938 1861.89 380.399 1910.35 407.321C1959.58 433.473 1998.42 470.011 2026.88 516.932C2056.11 563.853 2070.73 617.312 2070.73 677.31C2070.73 738.077 2056.11 791.921 2026.88 838.842C1998.42 885.763 1959.58 922.685 1910.35 949.607C1861.89 975.76 1807.27 988.836 1746.51 988.836ZM1746.51 811.151C1771.12 811.151 1792.66 805.382 1811.12 793.844C1830.35 782.306 1844.97 766.537 1854.97 746.538C1864.96 725.77 1869.96 702.694 1869.96 677.31C1869.96 651.157 1864.96 628.081 1854.97 608.082C1844.97 588.083 1830.35 572.314 1811.12 560.776C1792.66 549.238 1771.12 543.469 1746.51 543.469C1721.89 543.469 1700.36 549.238 1681.89 560.776C1663.43 572.314 1648.82 588.083 1638.05 608.082C1628.05 628.081 1623.05 651.157 1623.05 677.31C1623.05 702.694 1628.05 725.77 1638.05 746.538C1648.82 766.537 1663.43 782.306 1681.89 793.844C1700.36 805.382 1721.89 811.151 1746.51 811.151Z" fill="black"/>
<path d="M2465.3 974.991C2403.76 974.991 2348.76 962.299 2300.31 936.915C2251.85 911.532 2213.77 876.533 2186.08 831.919C2158.39 787.306 2144.54 736.154 2144.54 678.464C2144.54 620.774 2158.39 569.622 2186.08 525.008C2213.77 479.626 2251.85 444.242 2300.31 418.859C2348.76 393.475 2403.76 380.783 2465.3 380.783H2567.99V546.931H2477.99C2451.07 546.931 2427.61 552.7 2407.61 564.238C2387.61 575.776 2372.23 591.544 2361.46 611.543C2350.69 631.543 2345.3 653.849 2345.3 678.464C2345.3 703.078 2350.69 725.77 2361.46 746.538C2372.23 766.537 2387.61 782.306 2407.61 793.844C2427.61 805.382 2451.07 811.151 2477.99 811.151H2567.99V974.991H2465.3Z" fill="black"/>
<path d="M2961.15 988.836C2901.16 988.836 2846.54 975.76 2797.31 949.607C2748.85 922.685 2710.01 885.763 2680.78 838.842C2651.55 791.921 2636.94 738.077 2636.94 677.31C2636.94 617.312 2651.55 563.853 2680.78 516.932C2710.01 470.011 2749.24 433.473 2798.47 407.321C2847.7 380.399 2902.31 366.938 2962.31 366.938C3022.31 366.938 3076.53 380.399 3124.99 407.321C3174.22 433.473 3213.07 470.011 3241.53 516.932C3270.76 563.853 3285.37 617.312 3285.37 677.31C3285.37 738.077 3270.76 791.921 3241.53 838.842C3213.07 885.763 3174.22 922.685 3124.99 949.607C3076.53 975.76 3021.92 988.836 2961.15 988.836ZM2961.15 811.151C2985.77 811.151 3007.31 805.382 3025.77 793.844C3045 782.306 3059.61 766.537 3069.61 746.538C3079.61 725.77 3084.61 702.694 3084.61 677.31C3084.61 651.157 3079.61 628.081 3069.61 608.082C3059.61 588.083 3045 572.314 3025.77 560.776C3007.31 549.238 2985.77 543.469 2961.15 543.469C2936.54 543.469 2915 549.238 2896.54 560.776C2878.08 572.314 2863.47 588.083 2852.7 608.082C2842.7 628.081 2837.7 651.157 2837.7 677.31C2837.7 702.694 2842.7 725.77 2852.7 746.538C2863.47 766.537 2878.08 782.306 2896.54 793.844C2915 805.382 2936.54 811.151 2961.15 811.151Z" fill="black"/>
<path d="M3688.77 974.991V167.33H4169.91C4212.21 167.33 4250.29 176.56 4284.13 195.021C4318.75 212.713 4346.44 237.712 4367.21 270.018C4387.97 302.325 4398.36 340.4 4398.36 384.245C4398.36 408.09 4393.74 431.166 4384.51 453.473C4375.28 475.01 4362.97 494.625 4347.59 512.317C4332.21 529.239 4313.75 543.854 4292.21 556.161C4317.59 567.699 4339.51 583.468 4357.97 603.467C4377.2 623.466 4391.82 646.157 4401.82 671.541C4412.59 696.925 4417.97 723.847 4417.97 752.307C4417.97 796.921 4407.2 836.15 4385.67 869.995C4364.9 903.071 4336.82 928.839 4301.44 947.3C4266.06 965.76 4226.83 974.991 4183.75 974.991H3688.77ZM3909.15 800.767H4130.68C4145.29 800.767 4157.6 797.69 4167.6 791.536C4178.37 784.614 4186.83 775.383 4192.98 763.845C4199.13 752.307 4202.21 739.615 4202.21 725.77C4202.21 711.924 4199.13 699.617 4192.98 688.848C4186.83 678.079 4178.37 669.618 4167.6 663.464C4157.6 656.542 4145.29 653.08 4130.68 653.08H3909.15V800.767ZM3909.15 484.625H4106.45C4119.52 484.625 4131.06 481.549 4141.06 475.395C4151.83 468.472 4159.91 459.626 4165.29 448.857C4171.44 438.089 4174.52 426.551 4174.52 414.243C4174.52 401.936 4171.44 390.783 4165.29 380.783C4159.91 370.014 4152.21 361.553 4142.21 355.4C4132.21 349.246 4120.29 346.169 4106.45 346.169H3909.15V484.625Z" fill="black"/>
<path d="M4835.39 974.991C4768.47 974.991 4709.24 963.068 4657.7 939.223C4606.93 915.378 4566.55 881.148 4536.55 836.535C4507.32 791.921 4492.71 739.231 4492.71 678.464C4492.71 610.774 4506.94 553.853 4535.4 507.701C4563.86 461.549 4601.55 426.551 4648.47 402.705C4695.39 378.86 4745.77 366.938 4799.62 366.938C4858.08 366.938 4908.46 379.245 4950.77 403.859C4993.84 427.705 5026.92 461.549 5049.99 505.394C5073.84 549.238 5085.76 600.39 5085.76 658.849C5085.76 671.156 5084.99 685.387 5083.45 701.54C5082.68 716.924 5080.76 730 5077.69 740.769H4700.39C4705.01 757.692 4712.31 771.922 4722.31 783.46C4733.08 794.229 4746.93 802.305 4763.85 807.69C4781.54 813.074 4801.54 815.766 4823.85 815.766H5019.99V974.991H4835.39ZM4693.47 624.235H4896.54C4896.54 612.697 4895 602.313 4891.92 593.083C4888.85 583.083 4884.62 573.853 4879.23 565.391C4873.85 556.93 4867.31 549.623 4859.62 543.469C4851.92 537.316 4842.69 532.7 4831.93 529.624C4821.16 526.547 4809.62 525.008 4797.31 525.008C4781.16 525.008 4766.93 527.701 4754.62 533.085C4742.31 538.469 4731.93 545.777 4723.47 555.007C4715.01 563.468 4708.08 573.853 4702.7 586.16C4698.08 597.698 4695.01 610.39 4693.47 624.235Z" fill="black"/>
<path d="M5424 989.99C5372.46 989.99 5326.69 976.914 5286.69 950.761C5246.7 924.608 5215.16 888.84 5192.08 843.457C5169.78 797.305 5158.62 745 5158.62 686.54C5158.62 625.004 5172.08 570.007 5199.01 521.547C5226.7 473.087 5265.16 435.396 5314.39 408.474C5363.61 380.783 5421.69 366.938 5488.61 366.938C5553.99 366.938 5610.14 380.399 5657.06 407.321C5704.75 434.243 5741.68 471.164 5767.83 518.086C5793.98 565.007 5807.06 618.851 5807.06 679.618V974.991H5614.37V882.687H5609.76C5598.99 903.455 5585.14 921.916 5568.22 938.069C5551.3 954.222 5530.92 966.914 5507.07 976.145C5483.99 985.375 5456.3 989.99 5424 989.99ZM5483.99 815.766C5508.61 815.766 5529.76 809.997 5547.45 798.459C5565.15 786.152 5578.99 769.614 5588.99 748.846C5598.99 728.077 5603.99 704.617 5603.99 678.464C5603.99 652.311 5598.99 629.62 5588.99 610.39C5578.99 590.39 5565.15 574.622 5547.45 563.084C5529.76 550.777 5508.61 544.623 5483.99 544.623C5460.15 544.623 5439 550.777 5420.54 563.084C5402.84 574.622 5389 590.39 5379 610.39C5369 629.62 5364 652.311 5364 678.464C5364 704.617 5369 728.077 5379 748.846C5389 769.614 5402.84 786.152 5420.54 798.459C5439 809.997 5460.15 815.766 5483.99 815.766Z" fill="black"/>
<path d="M6223.04 974.991C6161.5 974.991 6106.51 962.299 6058.05 936.915C6009.59 911.532 5971.51 876.533 5943.82 831.919C5916.13 787.306 5902.28 736.154 5902.28 678.464C5902.28 620.774 5916.13 569.622 5943.82 525.008C5971.51 479.626 6009.59 444.242 6058.05 418.859C6106.51 393.475 6161.5 380.783 6223.04 380.783H6325.73V546.931H6235.73C6208.81 546.931 6185.35 552.7 6165.35 564.238C6145.35 575.776 6129.97 591.544 6119.2 611.543C6108.43 631.543 6103.04 653.849 6103.04 678.464C6103.04 703.078 6108.43 725.77 6119.2 746.538C6129.97 766.537 6145.35 782.306 6165.35 793.844C6185.35 805.382 6208.81 811.151 6235.73 811.151H6325.73V974.991H6223.04Z" fill="black"/>
<path d="M6415.45 974.991V132.716H6615.05V416.551C6638.13 399.629 6663.13 387.321 6690.05 379.629C6716.97 371.168 6743.51 366.938 6769.66 366.938C6821.97 366.938 6866.2 378.091 6902.35 400.398C6939.27 422.705 6967.73 453.857 6987.73 493.856C7007.73 533.854 7017.73 580.391 7017.73 633.466V974.991H6816.97V646.157C6816.97 625.389 6812.35 607.313 6803.12 591.929C6793.89 576.545 6781.59 564.622 6766.2 556.161C6750.82 547.7 6734.28 543.469 6716.59 543.469C6698.9 543.469 6682.36 547.7 6666.97 556.161C6651.59 563.853 6638.9 575.391 6628.9 590.775C6619.67 606.159 6615.05 623.851 6615.05 643.85V974.991H6415.45Z" fill="black"/>
<path d="M4908.88 1929.19C4897.86 1929.19 4887.97 1926.61 4879.21 1921.44C4870.67 1916.27 4863.81 1909.19 4858.64 1900.2C4853.7 1890.98 4851.22 1880.31 4851.22 1868.17V1742.07C4851.22 1733.97 4849.31 1726.67 4845.49 1720.15C4841.67 1713.63 4836.61 1708.57 4830.32 1704.98C4824.02 1701.16 4817.06 1699.25 4809.41 1699.25C4801.77 1699.25 4794.69 1701.16 4788.17 1704.98C4781.88 1708.57 4776.82 1713.63 4773 1720.15C4769.4 1726.67 4767.61 1733.97 4767.61 1742.07V1924.81H4751.08V1745.1C4751.08 1733.19 4753.56 1722.74 4758.5 1713.74C4763.45 1704.53 4770.3 1697.34 4779.07 1692.17C4787.84 1687 4797.95 1684.41 4809.41 1684.41C4820.65 1684.41 4830.66 1687 4839.42 1692.17C4848.19 1697.34 4855.04 1704.53 4859.99 1713.74C4865.16 1722.74 4867.74 1733.19 4867.74 1745.1V1871.2C4867.74 1879.74 4869.65 1887.27 4873.48 1893.79C4877.3 1900.09 4882.24 1905.14 4888.31 1908.96C4894.61 1912.56 4901.46 1914.36 4908.88 1914.36C4916.07 1914.36 4922.7 1912.56 4928.77 1908.96C4934.84 1905.14 4939.67 1900.09 4943.27 1893.79C4946.87 1887.27 4948.66 1879.74 4948.66 1871.2V1745.1C4948.66 1733.19 4951.14 1722.74 4956.08 1713.74C4961.25 1704.53 4968.22 1697.34 4976.99 1692.17C4985.75 1687 4995.87 1684.41 5007.33 1684.41C5018.57 1684.41 5028.57 1687 5037.34 1692.17C5046.11 1697.34 5052.96 1704.53 5057.91 1713.74C5062.85 1722.74 5065.32 1733.19 5065.32 1745.1V1924.81H5049.14V1742.07C5049.14 1733.97 5047.23 1726.67 5043.41 1720.15C5039.81 1713.63 5034.87 1708.57 5028.57 1704.98C5022.28 1701.16 5015.2 1699.25 5007.33 1699.25C4999.46 1699.25 4992.27 1701.16 4985.75 1704.98C4979.46 1708.57 4974.4 1713.63 4970.58 1720.15C4966.98 1726.67 4965.19 1733.97 4965.19 1742.07V1868.17C4965.19 1880.31 4962.71 1890.98 4957.77 1900.2C4953.05 1909.19 4946.42 1916.27 4937.87 1921.44C4929.33 1926.61 4919.67 1929.19 4908.88 1929.19Z" fill="black"/>
<path d="M5194.73 1929.19C5177.2 1929.19 5162.14 1925.26 5149.55 1917.39C5136.96 1909.3 5127.29 1898.4 5120.55 1884.69C5114.03 1870.98 5110.77 1855.58 5110.77 1838.5C5110.77 1821.64 5114.26 1806.47 5121.23 1792.98C5128.42 1779.27 5138.65 1768.48 5151.91 1760.61C5165.17 1752.74 5181.02 1748.81 5199.45 1748.81C5216.76 1748.81 5231.82 1752.74 5244.63 1760.61C5257.44 1768.25 5267.33 1778.71 5274.3 1791.97C5281.49 1805 5285.09 1819.84 5285.09 1836.47V1924.81H5269.24V1883.34H5268.23C5265.08 1890.31 5260.14 1897.39 5253.4 1904.58C5246.88 1911.55 5238.67 1917.39 5228.78 1922.11C5219.12 1926.83 5207.77 1929.19 5194.73 1929.19ZM5197.43 1915.37C5211.14 1915.37 5223.39 1912.11 5234.18 1905.59C5244.97 1898.85 5253.4 1889.63 5259.46 1877.95C5265.76 1866.03 5268.91 1852.66 5268.91 1837.82C5268.91 1823.44 5265.98 1810.62 5260.14 1799.39C5254.52 1787.92 5246.43 1778.93 5235.86 1772.41C5225.3 1765.89 5212.94 1762.63 5198.77 1762.63C5183.94 1762.63 5171.13 1766.01 5160.34 1772.75C5149.77 1779.49 5141.57 1788.71 5135.72 1800.4C5130.1 1812.09 5127.29 1825.35 5127.29 1840.18C5127.29 1853.89 5129.99 1866.48 5135.39 1877.95C5140.78 1889.41 5148.76 1898.51 5159.33 1905.26C5169.89 1912 5182.59 1915.37 5197.43 1915.37Z" fill="black"/>
<path d="M5339.48 1924.81V1801.75C5339.48 1786.46 5343.75 1774.55 5352.29 1766.01C5361.06 1757.24 5373.09 1752.86 5388.37 1752.86H5411.97V1767.02H5391.74C5379.83 1767.02 5370.73 1770.28 5364.43 1776.79C5358.36 1783.31 5355.33 1792.64 5355.33 1804.78V1924.81H5339.48Z" fill="black"/>
<path d="M5443.87 1924.81V1752.86H5460.05V1924.81H5443.87ZM5452.3 1718.46C5448.92 1718.46 5445.89 1717.23 5443.19 1714.76C5440.72 1712.06 5439.48 1709.02 5439.48 1705.65C5439.48 1702.06 5440.72 1699.02 5443.19 1696.55C5445.89 1694.08 5448.92 1692.84 5452.3 1692.84C5455.67 1692.84 5458.59 1694.08 5461.06 1696.55C5463.76 1699.02 5465.11 1702.06 5465.11 1705.65C5465.11 1709.02 5463.76 1712.06 5461.06 1714.76C5458.59 1717.23 5455.67 1718.46 5452.3 1718.46Z" fill="black"/>
<path d="M5601.99 1924.81C5584.01 1924.81 5567.71 1921.55 5553.1 1915.03C5538.49 1908.29 5526.92 1898.51 5518.38 1885.7C5509.83 1872.89 5505.56 1857.27 5505.56 1838.83C5505.56 1822.87 5508.82 1808.04 5515.34 1794.33C5521.86 1780.62 5531.08 1769.6 5542.99 1761.29C5555.13 1752.97 5569.4 1748.81 5585.81 1748.81C5601.99 1748.81 5615.82 1752.41 5627.28 1759.6C5638.97 1766.79 5647.85 1776.57 5653.92 1788.93C5660.21 1801.07 5663.36 1814.78 5663.36 1830.07C5663.36 1832.54 5663.25 1835.01 5663.02 1837.48C5663.02 1839.96 5662.8 1842.43 5662.35 1844.9H5522.42C5522.87 1859.06 5526.69 1871.09 5533.89 1880.98C5541.08 1890.87 5550.52 1898.29 5562.21 1903.23C5573.9 1908.18 5586.48 1910.65 5599.97 1910.65H5642.12V1924.81H5601.99ZM5522.42 1832.43H5646.84C5647.06 1827.93 5646.72 1822.65 5645.82 1816.58C5645.15 1810.51 5643.58 1804.44 5641.1 1798.37C5638.63 1792.08 5635.04 1786.24 5630.32 1780.84C5625.82 1775.45 5619.86 1771.06 5612.45 1767.69C5605.03 1764.32 5595.92 1762.63 5585.13 1762.63C5575.47 1762.63 5566.7 1764.66 5558.84 1768.7C5551.19 1772.75 5544.67 1778.26 5539.28 1785.22C5533.88 1791.97 5529.73 1799.5 5526.8 1807.81C5523.88 1815.91 5522.42 1824.11 5522.42 1832.43Z" fill="black"/>
<path d="M5695.1 1842.54V1827.71H5790.52V1842.54H5695.1Z" fill="black"/>
<path d="M6022.68 2000C6013.24 2000 6004.47 1997.86 5996.38 1993.59C5988.51 1989.32 5982.11 1983.03 5977.16 1974.71C5972.22 1966.4 5969.74 1956.17 5969.74 1944.03C5969.74 1941.33 5969.86 1938.41 5970.08 1935.26C5970.3 1932.34 5970.64 1929.42 5971.09 1926.5C5952.66 1928.52 5935.13 1927.28 5918.49 1922.79C5901.86 1918.29 5887.02 1910.76 5873.99 1900.2C5861.17 1889.41 5851.06 1876.15 5843.64 1860.41C5836.22 1844.45 5832.52 1826.36 5832.52 1806.13C5832.52 1789.27 5835.33 1773.54 5840.94 1758.92C5846.79 1744.09 5854.99 1731.16 5865.56 1720.15C5876.12 1708.91 5888.82 1700.15 5903.66 1693.85C5918.72 1687.56 5935.35 1684.41 5953.56 1684.41C5971.77 1684.41 5988.29 1687.56 6003.12 1693.85C6017.96 1700.15 6030.66 1708.91 6041.22 1720.15C6051.79 1731.16 6059.88 1743.98 6065.5 1758.59C6071.34 1773.2 6074.27 1788.82 6074.27 1805.45V1943.02C6074.27 1955.61 6072.02 1966.06 6067.52 1974.38C6063.03 1982.92 6056.84 1989.32 6048.98 1993.59C6041.34 1997.86 6032.57 2000 6022.68 2000ZM6021.67 1984.49C6031.56 1984.49 6040.1 1981.12 6047.29 1974.38C6054.48 1967.86 6058.08 1957.63 6058.08 1943.69V1842.54C6042.57 1850.63 6030.1 1859.29 6020.66 1868.5C6011.21 1877.5 6003.91 1886.49 5998.74 1895.48C5993.79 1904.47 5990.42 1913.01 5988.62 1921.1C5986.83 1929.19 5985.93 1936.39 5985.93 1942.68C5985.93 1951.67 5987.61 1959.32 5990.98 1965.61C5994.36 1971.9 5998.74 1976.62 6004.13 1979.77C6009.75 1982.92 6015.6 1984.49 6021.67 1984.49ZM5953.56 1913.01C5957.6 1913.01 5961.31 1912.9 5964.69 1912.67C5968.06 1912.22 5971.77 1911.55 5975.81 1910.65C5978.51 1901.21 5983 1891.54 5989.3 1881.65C5995.59 1871.76 6004.25 1861.99 6015.26 1852.32C6026.27 1842.43 6040.55 1833.21 6058.08 1824.67V1805.45C6058.08 1790.17 6055.38 1776.12 6049.99 1763.31C6044.82 1750.27 6037.51 1739.03 6028.07 1729.59C6018.86 1719.93 6007.84 1712.51 5995.03 1707.34C5982.22 1701.94 5968.39 1699.25 5953.56 1699.25C5938.5 1699.25 5924.56 1701.94 5911.75 1707.34C5899.16 1712.51 5888.15 1719.93 5878.71 1729.59C5869.27 1739.26 5861.96 1750.61 5856.79 1763.65C5851.62 1776.68 5849.04 1790.84 5849.04 1806.13C5849.04 1821.41 5851.62 1835.57 5856.79 1848.61C5861.96 1861.65 5869.27 1873 5878.71 1882.67C5888.15 1892.33 5899.16 1899.86 5911.75 1905.26C5924.56 1910.43 5938.5 1913.01 5953.56 1913.01Z" fill="black"/>
<path d="M6202.94 1929.19C6185.41 1929.19 6170.35 1925.26 6157.76 1917.39C6145.17 1909.3 6135.51 1898.4 6128.76 1884.69C6122.24 1870.98 6118.98 1855.58 6118.98 1838.5C6118.98 1821.64 6122.47 1806.47 6129.44 1792.98C6136.63 1779.27 6146.86 1768.48 6160.12 1760.61C6173.38 1752.74 6189.23 1748.81 6207.66 1748.81C6224.97 1748.81 6240.03 1752.74 6252.84 1760.61C6265.65 1768.25 6275.54 1778.71 6282.51 1791.97C6289.7 1805 6293.3 1819.84 6293.3 1836.47V1924.81H6277.45V1883.34H6276.44C6273.29 1890.31 6268.35 1897.39 6261.61 1904.58C6255.09 1911.55 6246.88 1917.39 6236.99 1922.11C6227.33 1926.83 6215.98 1929.19 6202.94 1929.19ZM6205.64 1915.37C6219.35 1915.37 6231.6 1912.11 6242.39 1905.59C6253.18 1898.85 6261.61 1889.63 6267.68 1877.95C6273.97 1866.03 6277.12 1852.66 6277.12 1837.82C6277.12 1823.44 6274.19 1810.62 6268.35 1799.39C6262.73 1787.92 6254.64 1778.93 6244.07 1772.41C6233.51 1765.89 6221.15 1762.63 6206.99 1762.63C6192.15 1762.63 6179.34 1766.01 6168.55 1772.75C6157.98 1779.49 6149.78 1788.71 6143.94 1800.4C6138.32 1812.09 6135.51 1825.35 6135.51 1840.18C6135.51 1853.89 6138.2 1866.48 6143.6 1877.95C6148.99 1889.41 6156.97 1898.51 6167.54 1905.26C6178.1 1912 6190.8 1915.37 6205.64 1915.37Z" fill="black"/>
<path d="M6348.03 1924.81V1678.68H6363.88V1924.81H6348.03Z" fill="black"/>
<path d="M6493.68 1929.19C6476.15 1929.19 6461.09 1925.26 6448.5 1917.39C6435.91 1909.3 6426.25 1898.4 6419.5 1884.69C6412.99 1870.98 6409.73 1855.58 6409.73 1838.5C6409.73 1821.64 6413.21 1806.47 6420.18 1792.98C6427.37 1779.27 6437.6 1768.48 6450.86 1760.61C6464.12 1752.74 6479.97 1748.81 6498.4 1748.81C6515.71 1748.81 6530.77 1752.74 6543.58 1760.61C6556.39 1768.25 6566.28 1778.71 6573.25 1791.97C6580.45 1805 6584.04 1819.84 6584.04 1836.47V1924.81H6568.19V1883.34H6567.18C6564.04 1890.31 6559.09 1897.39 6552.35 1904.58C6545.83 1911.55 6537.62 1917.39 6527.73 1922.11C6518.07 1926.83 6506.72 1929.19 6493.68 1929.19ZM6496.38 1915.37C6510.09 1915.37 6522.34 1912.11 6533.13 1905.59C6543.92 1898.85 6552.35 1889.63 6558.42 1877.95C6564.71 1866.03 6567.86 1852.66 6567.86 1837.82C6567.86 1823.44 6564.94 1810.62 6559.09 1799.39C6553.47 1787.92 6545.38 1778.93 6534.82 1772.41C6524.25 1765.89 6511.89 1762.63 6497.73 1762.63C6482.89 1762.63 6470.08 1766.01 6459.29 1772.75C6448.73 1779.49 6440.52 1788.71 6434.68 1800.4C6429.06 1812.09 6426.25 1825.35 6426.25 1840.18C6426.25 1853.89 6428.94 1866.48 6434.34 1877.95C6439.73 1889.41 6447.71 1898.51 6458.28 1905.26C6468.84 1912 6481.54 1915.37 6496.38 1915.37Z" fill="black"/>
<path d="M6638.77 1924.81V1824.34C6638.77 1808.15 6642.37 1794.44 6649.56 1783.2C6656.75 1771.96 6666.19 1763.42 6677.88 1757.58C6689.57 1751.51 6702.05 1748.47 6715.31 1748.47C6729.02 1748.47 6741.61 1751.51 6753.07 1757.58C6764.76 1763.42 6774.2 1771.96 6781.39 1783.2C6788.59 1794.44 6792.18 1808.15 6792.18 1824.34V1924.81H6776V1825.35C6776 1811.86 6773.08 1800.51 6767.23 1791.29C6761.61 1781.85 6754.08 1774.77 6744.64 1770.05C6735.43 1765.11 6725.65 1762.63 6715.31 1762.63C6704.97 1762.63 6695.19 1764.99 6685.97 1769.71C6676.76 1774.43 6669.23 1781.52 6663.38 1790.96C6657.54 1800.17 6654.62 1811.64 6654.62 1825.35V1924.81H6638.77Z" fill="black"/>
<path d="M6904.52 1924.81C6889.24 1924.81 6877.21 1920.43 6868.45 1911.66C6859.9 1902.9 6855.63 1890.98 6855.63 1875.92V1709.7H6871.82V1872.89C6871.82 1885.03 6874.85 1894.35 6880.92 1900.87C6886.99 1907.39 6896.09 1910.65 6908.23 1910.65H6939.92V1924.81H6904.52ZM6825.63 1767.02V1752.86H6940.94V1767.02H6825.63Z" fill="black"/>
<path d="M7064.26 1924.81C7046.28 1924.81 7029.98 1921.55 7015.37 1915.03C7000.76 1908.29 6989.19 1898.51 6980.64 1885.7C6972.1 1872.89 6967.83 1857.27 6967.83 1838.83C6967.83 1822.87 6971.09 1808.04 6977.61 1794.33C6984.13 1780.62 6993.34 1769.6 7005.26 1761.29C7017.39 1752.97 7031.67 1748.81 7048.08 1748.81C7064.26 1748.81 7078.09 1752.41 7089.55 1759.6C7101.24 1766.79 7110.12 1776.57 7116.19 1788.93C7122.48 1801.07 7125.63 1814.78 7125.63 1830.07C7125.63 1832.54 7125.51 1835.01 7125.29 1837.48C7125.29 1839.96 7125.06 1842.43 7124.61 1844.9H6984.69C6985.14 1859.06 6988.96 1871.09 6996.15 1880.98C7003.35 1890.87 7012.79 1898.29 7024.48 1903.23C7036.16 1908.18 7048.75 1910.65 7062.24 1910.65H7104.38V1924.81H7064.26ZM6984.69 1832.43H7109.1C7109.33 1827.93 7108.99 1822.65 7108.09 1816.58C7107.42 1810.51 7105.85 1804.44 7103.37 1798.37C7100.9 1792.08 7097.3 1786.24 7092.58 1780.84C7088.09 1775.45 7082.13 1771.06 7074.71 1767.69C7067.3 1764.32 7058.19 1762.63 7047.4 1762.63C7037.74 1762.63 7028.97 1764.66 7021.1 1768.7C7013.46 1772.75 7006.94 1778.26 7001.55 1785.22C6996.15 1791.97 6991.99 1799.5 6989.07 1807.81C6986.15 1815.91 6984.69 1824.11 6984.69 1832.43Z" fill="black"/>
</svg>
