<svg width="160" height="30" viewBox="0 0 160 30" fill="none" xmlns="http://www.w3.org/2000/svg">
<path d="M39.058 0.000169314C39.5915 -0.0053467 40.1111 0.123927 40.6023 0.386318C41.2136 0.712806 41.492 1.15541 41.5492 2.00476C41.5658 2.25034 41.564 2.52993 41.5463 2.85056C41.5221 3.28713 41.4788 3.65181 41.3825 4.04615C41.203 4.78058 40.8391 5.61777 40.068 7.21305C39.012 9.39799 36.708 14.3258 36.6141 14.6002C36.5762 14.7114 36.5902 14.7285 36.6531 14.6472C37.0083 14.1876 41.1103 10.77 42.8815 9.45802C45.8531 7.25691 47.507 6.37877 50.6587 5.32934C50.8017 5.28172 50.9354 5.23763 51.0608 5.19653C51.5944 5.02165 51.9781 4.90357 52.2921 4.82413C52.6279 4.73917 52.8841 4.69837 53.1587 4.67928C53.2895 4.67018 53.4245 4.66593 53.5743 4.66428C53.6231 4.66374 53.6696 4.66342 53.7141 4.66326C54.3365 4.66105 54.5523 4.69911 54.7324 4.84287C54.7453 4.85315 54.758 4.86399 54.7706 4.87537C55.2808 5.33429 55.0402 6.10333 53.7746 8.05885C53.0173 9.22895 52.0595 11.1575 51.1787 13.1769C50.8732 13.8772 50.5768 14.5884 50.3015 15.2827C50.0995 15.7923 49.9087 16.2928 49.7338 16.7733C49.5818 17.1907 49.4417 17.593 49.3166 17.9729C49.0489 18.786 48.8499 19.4966 48.7487 20.0339C48.7389 20.0856 48.7299 20.1357 48.722 20.1842C48.5067 21.5049 48.4327 23.8244 48.5865 24.4334C48.716 24.9461 48.9457 25.3715 49.2509 25.699C49.9957 26.4983 51.1908 26.7135 52.4814 26.1844C52.7693 26.0664 53.094 25.9026 53.4487 25.699C54.3633 25.174 55.4778 24.3839 56.6785 23.4307C56.9594 23.2077 57.2451 22.9759 57.534 22.7364C59.4608 21.1384 61.5324 19.2006 63.3164 17.3089C64.4084 16.151 65.3926 15.0104 66.1698 13.9755C66.3625 13.7188 66.5581 13.4754 66.7342 13.2699C66.8266 13.162 66.9137 13.0647 66.9922 12.9813C67.16 12.803 67.2886 12.6884 67.3468 12.6723C67.3881 12.661 67.4343 12.6564 67.4835 12.6575C67.8282 12.6654 68.3222 12.9543 68.3222 13.1859C68.3222 13.3387 68.121 13.7385 67.7986 14.2619C67.3733 14.9524 66.7368 15.8578 66.0727 16.6941C66.0452 16.7287 66.0176 16.7633 65.99 16.7977C65.3668 17.5744 64.6965 18.3626 64.0019 19.1406C61.4546 21.9937 58.5782 24.7071 56.4759 26.191C55.8865 26.6071 55.366 26.9484 54.8689 27.2368C54.4359 27.488 54.0206 27.6988 53.5929 27.8837C52.9053 28.1811 52.1857 28.4114 51.3087 28.6334C51.2168 28.6567 51.1235 28.6787 51.0293 28.6996C50.9645 28.7139 50.8991 28.7275 50.8334 28.7407C50.6021 28.7871 50.3664 28.8266 50.1305 28.8585C49.6304 28.9261 49.1299 28.9607 48.6714 28.9611C48.0295 28.9617 47.4699 28.8953 47.1085 28.7582C46.0274 28.3481 44.678 27.1623 44.2851 26.2771C43.73 25.0263 43.5776 23.0587 43.8082 20.8417C43.9365 19.6089 44.1831 18.2989 44.5449 16.9922C44.5745 16.8851 44.605 16.7781 44.6362 16.6711C44.6565 16.6012 44.6771 16.5313 44.6982 16.4615C45.0714 15.2222 46.1495 12.5196 46.9722 10.7189C47.113 10.4109 47.2462 10.1292 47.3672 9.88575C47.7577 9.0999 48.0329 8.45469 47.9866 8.435L47.9842 8.43454C47.9716 8.43454 47.9537 8.43782 47.9308 8.44409C47.8038 8.47888 47.5251 8.60676 47.1669 8.78809C46.2136 9.2707 44.6972 10.1321 43.9799 10.6269C43.4762 10.9743 42.8375 11.4787 42.1254 12.0798C41.8829 12.2845 41.632 12.5004 41.3749 12.7251C38.2792 15.4324 34.3041 19.4261 33.7141 20.5745C33.7083 20.5858 33.7021 20.5969 33.696 20.6083C33.3525 21.2427 32.4591 21.9989 31.781 22.2235C31.574 22.292 31.3414 22.3419 31.1045 22.3736C30.4633 22.4594 29.7902 22.4103 29.5075 22.2256C29.1729 22.007 28.9902 21.6091 28.9902 21.0987C28.9902 21.0594 28.9929 21.0157 28.998 20.968C29.1018 19.9997 30.2457 17.3161 31.9667 14.0185C34.023 10.0787 35.4768 7.09476 35.6957 6.37293C35.7098 6.32642 35.7188 6.28931 35.7225 6.26193C35.7765 5.86047 35.7455 5.76234 35.5134 5.60017C35.1468 5.34428 34.7756 5.36419 34.0025 5.68129C33.9138 5.71763 33.825 5.75606 33.7357 5.7966C33.5241 5.89255 33.3097 6.00089 33.0877 6.12447C32.3468 6.53697 31.5227 7.11938 30.4491 7.97955C29.5873 8.6701 28.7381 9.43962 27.8163 10.3847C27.0621 11.1579 26.2596 12.0487 25.3616 13.1099C23.9643 14.7612 22.3361 16.8251 20.3018 19.5017C17.3985 23.3219 15.3125 25.9737 14.5503 26.8132C14.4418 26.9327 14.344 27.0364 14.2495 27.1295C13.8398 27.533 13.4907 27.7373 12.593 28.1624C11.3152 28.7674 10.4888 29.0884 9.89937 29.1969C9.84131 29.2076 9.78559 29.2164 9.73193 29.2231C9.61683 29.2373 9.51135 29.2424 9.41348 29.239L9.35558 29.2358C8.91274 29.2039 8.85347 29.1653 8.82126 28.8878C8.81288 28.8157 8.81861 28.723 8.83482 28.6265C8.83803 28.6074 8.84153 28.5882 8.84554 28.5689C8.86951 28.4536 8.90737 28.3375 8.95336 28.248C9.23954 27.6907 14.6346 12.3558 14.6346 12.0995C14.6346 12.098 14.6343 12.0971 14.6335 12.0966C14.6165 12.0874 14.4113 12.3514 14.1231 12.7485C14.014 12.8989 13.8929 13.0682 13.7658 13.2492C13.2885 13.9287 12.8023 14.5759 12.3492 15.1395C11.8465 15.7648 11.3847 16.2873 11.0203 16.636C10.8674 16.7824 10.762 16.8822 10.6839 16.9426C10.5192 17.07 10.4748 17.0228 10.3582 16.8687C10.1421 16.5831 10.2287 15.7013 10.5412 15.0074C10.6564 14.7514 11.2285 13.9034 11.8127 13.123C12.278 12.5012 12.833 11.7263 13.3904 10.9265C14.3778 9.5096 15.3725 8.01471 15.887 7.15488C16.681 5.82811 17.1277 4.83817 17.428 3.73964C17.5527 3.28344 17.6967 2.89516 17.8657 2.56586C18.1823 1.94856 18.5871 1.5388 19.1197 1.27904C19.5817 1.05378 20.1342 0.95381 20.6788 0.958326C21.7318 0.967061 22.7549 1.36638 23.0364 2.00476C23.053 2.04238 23.0673 2.0807 23.0786 2.11995C23.1709 2.44101 23.1093 2.82876 22.7621 3.71465C22.6146 4.09092 22.4157 4.55714 22.1551 5.1462C21.5319 6.55463 20.982 7.91879 19.3986 11.9827C18.6983 13.7803 17.3966 17.2078 16.7135 19.0381C16.6658 19.1659 16.621 19.286 16.5798 19.3971C16.3866 19.9175 16.2686 20.243 16.2686 20.2609C16.2687 20.2649 16.2804 20.2549 16.3028 20.2326C16.4452 20.0901 17.015 19.4413 17.6909 18.65C20.0272 15.9148 23.3997 12.2755 26.2295 9.39611C27.3747 8.23087 28.431 7.19009 29.2938 6.38406L29.5762 6.12231C31.1978 4.63176 32.6304 3.42623 33.8968 2.48986C33.9949 2.41733 34.092 2.34648 34.1881 2.27718C34.3181 2.18347 34.4462 2.09261 34.5726 2.00476C34.6743 1.93403 34.775 1.86528 34.8744 1.79833C35.7772 1.19059 36.5861 0.737925 37.3116 0.433465C37.6267 0.301213 37.9261 0.196974 38.2105 0.120024C38.4636 0.0515181 38.7154 0.0125651 38.9645 0.00266866C38.9957 0.00142704 39.0269 0.000491438 39.058 0.000169314Z" fill="url(#paint0_linear_137_10885)"/>
<path fill-rule="evenodd" clip-rule="evenodd" d="M4.81635 15.632C5.49179 15.4137 6.04154 15.6678 6.14645 16.179C6.17739 16.3297 6.16976 16.5029 6.11511 16.6928C6.0821 16.8075 6.02561 16.9425 5.94859 17.0943C5.81974 17.3482 5.63326 17.649 5.40276 17.9795C4.72443 18.9523 3.6643 20.1833 2.56553 21.2382C2.50539 21.296 2.4452 21.3533 2.38488 21.4099C1.84206 21.9194 1.2589 22.4687 1.08908 22.6302C0.480435 23.2095 0.548646 24.6098 1.18983 24.7008C1.60171 24.7593 2.52764 24.0956 3.49296 23.0498C3.97199 22.531 4.01417 22.3978 4.38731 22.0302C4.7006 21.7215 4.76428 21.6481 5.22119 21.2993C6.00999 20.6971 6.73913 20.3409 7.27186 20.2857C7.42104 20.2703 7.55483 20.2784 7.67021 20.3114C7.93676 20.3876 8.08067 20.4775 8.15222 20.652C8.19611 20.7591 8.21288 20.8981 8.21376 21.0854C8.21444 21.2301 8.16102 21.3876 8.06537 21.5494C7.98653 21.6827 7.87894 21.8188 7.74885 21.9529C7.64483 22.0601 7.52654 22.1661 7.39712 22.2682C7.03757 22.5518 6.59264 22.8059 6.13255 22.9771C6.06717 23.0014 6.0015 23.0241 5.93571 23.0449C5.7909 23.0907 5.64559 23.1278 5.50192 23.1542C5.40835 23.1714 5.33067 23.1814 5.26849 23.1853C4.92658 23.207 5.05353 23.0422 5.585 22.8469C5.60146 22.8408 5.61827 22.8347 5.6355 22.8286C5.83809 22.7569 6.07029 22.6421 6.30431 22.5054C6.3829 22.4595 6.46174 22.4112 6.53967 22.3611C6.78678 22.2023 7.02526 22.0263 7.22148 21.8582C7.48032 21.6365 7.66565 21.4285 7.70007 21.2918C7.79488 20.9152 7.717 20.6945 7.50278 20.6934C7.46309 20.6932 7.4187 20.7006 7.36988 20.7159C6.48823 20.9918 5.00332 22.351 4.58269 23.267C4.31461 23.8511 4.30547 24.4136 4.56001 24.6673C4.69628 24.8031 4.91553 24.8583 5.18631 24.848C5.35165 24.8417 5.53619 24.8109 5.73283 24.7591C5.83579 24.732 5.94204 24.699 6.0506 24.6608C6.99673 24.3279 8.11659 23.5935 8.73179 22.78C8.76837 22.7316 8.80332 22.683 8.83619 22.6341C8.85009 22.6135 8.86434 22.594 8.87859 22.5757C8.89908 22.5495 8.91969 22.5259 8.9398 22.5054C9.01133 22.4325 9.07627 22.3994 9.10552 22.4285C9.11249 22.4354 9.11671 22.4449 9.11862 22.4568C9.1316 22.5369 9.03236 22.7237 8.87084 22.9503C8.65019 23.2598 8.31347 23.6434 7.98809 23.9294C7.49065 24.3669 6.9475 24.6965 6.41225 24.9021C5.69029 25.1796 4.98266 25.2314 4.42062 25.0175C3.78688 24.7763 3.547 24.4643 3.54699 23.8816V23.4428L2.89949 24.0528C2.57335 24.3602 2.16106 24.6931 1.93684 24.833C1.91624 24.8458 1.89729 24.8572 1.88008 24.8666C1.50911 25.0696 1.09329 25.1175 0.740881 25.0158C0.582832 24.9701 0.437476 24.8944 0.314722 24.789C0.0271638 24.5421 -0.0108734 24.4323 0.00219748 23.8874C0.0040558 23.8104 0.0101834 23.7285 0.0202058 23.6418C0.114676 22.825 0.570117 21.5861 1.35738 20.0097C1.3622 20 1.36715 19.9904 1.37197 19.9808C1.61349 19.4983 1.85073 19.0547 2.08318 18.6502C2.92683 17.182 3.70828 16.23 4.4123 15.8152C4.48872 15.7702 4.56431 15.7316 4.63888 15.6992C4.69885 15.6732 4.75805 15.6508 4.81635 15.632ZM5.4659 16.0203C5.40809 16.012 5.32549 16.0274 5.23521 16.0596C5.12768 16.098 5.0093 16.1604 4.90867 16.235C4.90069 16.2409 4.8927 16.2468 4.88496 16.2528C4.40026 16.6327 3.80177 17.3067 3.21588 18.1327C2.99977 18.4374 2.67442 18.997 2.34989 19.5967C1.77568 20.6579 1.20421 21.8449 1.24614 21.9688C1.26097 22.0126 1.34508 21.974 1.47751 21.875C1.55025 21.8206 1.63757 21.7481 1.73578 21.6607C2.29318 21.1649 3.20392 20.1951 3.82008 19.4037C3.8516 19.3632 3.88239 19.3232 3.91228 19.2837C4.54604 18.447 5.00911 17.771 5.302 17.2559C5.57868 16.7692 5.70332 16.426 5.67607 16.2258C5.65984 16.1065 5.58992 16.038 5.4659 16.0203Z" fill="url(#paint1_linear_137_10885)"/>
<path d="M72 21.8134V5.36585H73.0668V13.018H85.2843V5.36585H86.3511V21.8134H85.2843V13.9279H73.0668V21.8134H72Z" fill="#5A3825"/>
<path d="M93.0769 13.5779C93.0769 11.836 93.3817 10.3429 93.9913 9.09862C94.6178 7.83881 95.5153 6.87451 96.6837 6.20573C97.869 5.52139 99.2999 5.17921 100.976 5.17921C102.602 5.17921 104.007 5.52139 105.193 6.20573C106.378 6.87451 107.293 7.83881 107.936 9.09862C108.579 10.3429 108.901 11.8282 108.901 13.5546C108.901 15.2966 108.571 16.7975 107.911 18.0573C107.267 19.3171 106.353 20.2891 105.167 20.9735C103.982 21.6578 102.585 22 100.976 22C99.3169 22 97.8944 21.6578 96.7091 20.9735C95.5407 20.2891 94.6432 19.3171 94.0167 18.0573C93.3901 16.7975 93.0769 15.3043 93.0769 13.5779ZM94.2199 13.5779C94.2199 15.9265 94.7956 17.7618 95.9471 19.0838C97.0986 20.3902 98.775 21.0435 100.976 21.0435C103.093 21.0435 104.753 20.3902 105.955 19.0838C107.157 17.7773 107.758 15.942 107.758 13.5779C107.758 11.2139 107.157 9.38636 105.955 8.09544C104.769 6.78897 103.11 6.13574 100.976 6.13574C98.775 6.13574 97.0986 6.78897 95.9471 8.09544C94.7956 9.38636 94.2199 11.2139 94.2199 13.5779ZM97.2933 3.96607L100.367 0H101.586L104.659 3.96607H103.72L100.976 0.886533L98.2331 3.96607H97.2933Z" fill="#5A3825"/>
<path d="M118.931 21.8134V6.27572H112.276V5.36585H126.653V6.27572H119.998V21.8134H118.931Z" fill="#5A3825"/>
<path d="M132.008 21.8134V5.36585H142.879V6.27572H133.075V13.018H142.321V13.9279H133.075V20.9035H142.879V21.8134H132.008Z" fill="#5A3825"/>
<path d="M149.332 21.8134V5.36585H150.399V20.9035H160V21.8134H149.332Z" fill="#5A3825"/>
<path opacity="0.5" d="M72.516 29V24.77H73.008L74.676 28.526H74.496L76.164 24.77H76.65V29H76.14V25.514H76.326L74.76 29H74.406L72.84 25.514H73.026V29H72.516ZM80.432 29L82.304 24.77H82.79L84.692 29H84.116L83.594 27.8L83.834 27.944H81.26L81.524 27.8L81.002 29H80.432ZM82.538 25.394L81.602 27.614L81.458 27.488H83.636L83.522 27.614L82.562 25.394H82.538ZM88.4737 29V24.77H90.2257C90.6777 24.77 91.0257 24.876 91.2697 25.088C91.5177 25.3 91.6417 25.596 91.6417 25.976C91.6417 26.228 91.5857 26.442 91.4737 26.618C91.3617 26.794 91.2037 26.928 90.9997 27.02C90.7997 27.112 90.5657 27.158 90.2977 27.158L90.3997 27.074H90.5437C90.7077 27.074 90.8537 27.116 90.9817 27.2C91.1097 27.28 91.2157 27.412 91.2997 27.596L91.8997 29H91.2817L90.6997 27.608C90.6317 27.436 90.5317 27.324 90.3997 27.272C90.2717 27.22 90.1097 27.194 89.9137 27.194H89.0317V29H88.4737ZM89.0317 26.762H90.1417C90.4497 26.762 90.6837 26.696 90.8437 26.564C91.0077 26.432 91.0897 26.24 91.0897 25.988C91.0897 25.74 91.0077 25.552 90.8437 25.424C90.6837 25.292 90.4497 25.226 90.1417 25.226H89.0317V26.762ZM95.8255 29V24.77H96.3835V29H95.8255ZM100.588 29V24.77H103.324V25.226H101.128V26.624H103.186V27.08H101.128V28.544H103.324V29H100.588ZM107.211 27.578V27.134H108.945V27.578H107.211ZM115.027 29.054C114.563 29.054 114.173 28.968 113.857 28.796C113.541 28.62 113.303 28.37 113.143 28.046C112.987 27.722 112.909 27.336 112.909 26.888C112.909 26.44 112.993 26.054 113.161 25.73C113.329 25.406 113.569 25.156 113.881 24.98C114.197 24.804 114.575 24.716 115.015 24.716C115.323 24.716 115.591 24.76 115.819 24.848C116.047 24.936 116.251 25.064 116.431 25.232L116.221 25.676C116.093 25.564 115.969 25.474 115.849 25.406C115.729 25.338 115.603 25.29 115.471 25.262C115.343 25.23 115.191 25.214 115.015 25.214C114.523 25.214 114.147 25.36 113.887 25.652C113.627 25.944 113.497 26.358 113.497 26.894C113.497 27.438 113.623 27.852 113.875 28.136C114.127 28.42 114.519 28.562 115.051 28.562C115.239 28.562 115.423 28.544 115.603 28.508C115.783 28.472 115.955 28.42 116.119 28.352L116.005 28.634V27.2H114.943V26.768H116.485V28.748C116.305 28.84 116.083 28.914 115.819 28.97C115.555 29.026 115.291 29.054 115.027 29.054ZM120.213 29L122.085 24.77H122.571L124.473 29H123.897L123.375 27.8L123.615 27.944H121.041L121.305 27.8L120.783 29H120.213ZM122.319 25.394L121.383 27.614L121.239 27.488H123.417L123.303 27.614L122.343 25.394H122.319ZM128.255 29V24.77H128.813V28.52H130.919V29H128.255ZM134.179 29L136.051 24.77H136.537L138.439 29H137.863L137.341 27.8L137.581 27.944H135.007L135.271 27.8L134.749 29H134.179ZM136.285 25.394L135.349 27.614L135.205 27.488H137.383L137.269 27.614L136.309 25.394H136.285ZM142.22 29V24.77H142.652L145.304 28.274H145.16V24.77H145.682V29H145.256L142.604 25.496H142.742V29H142.22ZM150.903 29V25.244H149.439V24.77H152.937V25.244H151.467V29H150.903ZM156.713 29V24.77H159.449V25.226H157.253V26.624H159.311V27.08H157.253V28.544H159.449V29H156.713Z" fill="#5A3825"/>
<defs>
<linearGradient id="paint0_linear_137_10885" x1="34.1611" y1="0" x2="34.1611" y2="29.24" gradientUnits="userSpaceOnUse">
<stop stop-color="#5A3825"/>
<stop offset="1" stop-color="#BD6331"/>
</linearGradient>
<linearGradient id="paint1_linear_137_10885" x1="34.1611" y1="0" x2="34.1611" y2="29.24" gradientUnits="userSpaceOnUse">
<stop stop-color="#5A3825"/>
<stop offset="1" stop-color="#BD6331"/>
</linearGradient>
</defs>
</svg>
