<svg width="24" height="22" viewBox="0 0 24 22" fill="none" xmlns="http://www.w3.org/2000/svg">
<path d="M13 10C13.5933 10 14.1734 9.82405 14.6667 9.49441C15.1601 9.16477 15.5446 8.69623 15.7716 8.14805C15.9987 7.59987 16.0581 6.99667 15.9424 6.41473C15.8266 5.83279 15.5409 5.29824 15.1213 4.87868C14.7018 4.45912 14.1672 4.1734 13.5853 4.05765C13.0033 3.94189 12.4001 4.0013 11.8519 4.22836C11.3038 4.45543 10.8352 4.83994 10.5056 5.33329C10.1759 5.82664 10 6.40666 10 7C10 7.79565 10.3161 8.55871 10.8787 9.12132C11.4413 9.68393 12.2044 10 13 10ZM13 6C13.1978 6 13.3911 6.05865 13.5556 6.16853C13.72 6.27841 13.8482 6.43459 13.9239 6.61732C13.9996 6.80004 14.0194 7.00111 13.9808 7.19509C13.9422 7.38907 13.847 7.56726 13.7071 7.70711C13.5673 7.84696 13.3891 7.9422 13.1951 7.98079C13.0011 8.01937 12.8 7.99957 12.6173 7.92388C12.4346 7.84819 12.2784 7.72002 12.1685 7.55557C12.0586 7.39112 12 7.19778 12 7C12 6.73478 12.1054 6.48043 12.2929 6.29289C12.4804 6.10536 12.7348 6 13 6ZM17.11 9.86C17.6951 9.02103 18.0087 8.02282 18.0087 7C18.0087 5.97718 17.6951 4.97897 17.11 4.14C17.3976 4.04741 17.6979 4.00018 18 4C18.7956 4 19.5587 4.31607 20.1213 4.87868C20.6839 5.44129 21 6.20435 21 7C21 7.79565 20.6839 8.55871 20.1213 9.12132C19.5587 9.68393 18.7956 10 18 10C17.6979 9.99982 17.3976 9.95259 17.11 9.86ZM13 12C7 12 7 16 7 16V18H19V16C19 16 19 12 13 12ZM9 16C9 15.71 9.32 14 13 14C16.5 14 16.94 15.56 17 16M24 16V18H21V16C20.9766 15.2566 20.8054 14.5254 20.4964 13.8489C20.1873 13.1724 19.7466 12.5643 19.2 12.06C24 12.55 24 16 24 16ZM8 11H5V14H3V11H0V9H3V6H5V9H8V11Z"/>
</svg>
