<svg width="24" height="22" viewBox="0 0 24 22" fill="none" xmlns="http://www.w3.org/2000/svg">
<path d="M11.1 20V16.265L8.175 19.145L6.915 17.885L11.1 13.7V11.9H9.3L5.115 16.085L3.855 14.825L6.735 11.9H3V10.1H6.735L3.855 7.175L5.115 5.915L9.3 10.1H11.1V8.3L6.915 4.115L8.175 2.855L11.1 5.735V2H12.9V5.735L15.825 2.855L17.085 4.115L12.9 8.3V10.1H14.7L18.885 5.915L20.145 7.175L17.265 10.1H21V11.9H17.265L20.145 14.825L18.885 16.085L14.7 11.9H12.9V13.7L17.085 17.885L15.825 19.145L12.9 16.265V20H11.1Z"/>
</svg>
