<svg width="24" height="22" viewBox="0 0 24 22" fill="none" xmlns="http://www.w3.org/2000/svg">
<path d="M10.3 5.59998C11.2941 5.59998 12.1 4.7941 12.1 3.79999C12.1 2.80588 11.2941 2 10.3 2C9.30586 2 8.49998 2.80588 8.49998 3.79999C8.49998 4.7941 9.30586 5.59998 10.3 5.59998Z"/>
<path d="M17.4816 13.5235C17.4409 13.3196 17.3307 13.1361 17.1699 13.0041C17.0091 12.8722 16.8076 12.8001 16.5996 12.7999H12.88L12.4939 10.1H16.5996V8.29997H12.2374L12.0907 7.27217C12.0599 7.05779 11.9529 6.86169 11.7892 6.71985C11.6256 6.57801 11.4162 6.49995 11.1997 6.49998H10.2997C10.1708 6.5004 10.0435 6.52841 9.92641 6.58213C9.80927 6.63584 9.705 6.714 9.62059 6.81137C9.53618 6.90874 9.4736 7.02305 9.43704 7.14662C9.40049 7.27019 9.39082 7.40015 9.40868 7.52777L10.198 13.0555C10.2611 13.4836 10.4756 13.8748 10.8026 14.1582C11.1295 14.4416 11.5473 14.5983 11.98 14.5999H15.8616L16.6167 18.3763C16.7013 18.7966 17.0703 19.0999 17.4996 19.0999H20.1996V17.2999H18.2367L17.4816 13.5235Z"/>
<path d="M9.84997 18.2C11.434 18.2 12.7939 17.2784 13.4589 15.95H14.5938L14.8404 17.1866C14.3199 18.0443 13.5874 18.7536 12.7134 19.2463C11.8394 19.7391 10.8533 19.9986 9.84997 20C6.62439 20 4 17.3756 4 14.15C4 11.5436 5.71449 9.33056 8.07518 8.57726L8.33528 10.3998C7.58752 10.7017 6.94684 11.2198 6.4952 11.8879C6.04357 12.556 5.8015 13.3436 5.79999 14.15C5.80118 15.2238 6.22826 16.2532 6.98752 17.0125C7.74678 17.7717 8.77621 18.1988 9.84997 18.2Z"/>
</svg>
