<svg width="24" height="22" viewBox="0 0 24 22" fill="none" xmlns="http://www.w3.org/2000/svg">
<path d="M4.89493 2.23575C3.51374 3.20264 2.54896 4.50643 2.11261 5.83589C1.67626 7.16532 1.76628 8.53083 2.51473 9.59977L2.51477 9.59982C3.11396 10.4548 4.03151 10.9833 5.09221 11.1797L7.55933 14.7033L7.83221 15.0931V14.6173V12.5177V12.4704L7.80509 12.4316L5.99182 9.8417L5.94989 9.78181L5.87688 9.77794C4.9625 9.72951 4.19468 9.37481 3.74745 8.73681C3.2589 8.03892 3.21834 7.10657 3.57713 6.14675C3.93565 5.18765 4.68901 4.21659 5.75772 3.46829L5.75773 3.46829C6.82644 2.71991 7.99668 2.34407 9.02058 2.33522C10.0452 2.32635 10.9075 2.6834 11.396 3.38128C11.8425 4.01941 11.9129 4.86252 11.6459 5.73839L11.6254 5.80562L11.6639 5.8644L12.8524 7.67661L12.8968 7.74435H12.9778H14.5289H14.8171L14.6518 7.50831L13.2316 5.48009C13.4096 4.41672 13.2273 3.37339 12.6287 2.51833L12.6287 2.51832C11.8803 1.44938 10.6279 0.897714 9.22938 0.852971C7.83086 0.808227 6.27578 1.26875 4.89493 2.23575ZM4.89493 2.23575L4.98095 2.35863L4.89493 2.23575ZM15.2452 8.35576H19.7013C20.1091 8.35576 20.5004 8.51781 20.7889 8.80624L20.7889 8.80627C21.0773 9.09482 21.2395 9.48593 21.2395 9.89401V11.9764C21.2395 12.3845 21.0773 12.7756 20.7889 13.0641L20.7889 13.0642C20.5004 13.3526 20.1091 13.5146 19.7013 13.5146H18.463V15.447C18.463 15.9289 18.3444 16.3985 18.1229 16.8167L18.1228 16.8169C17.9871 17.0722 17.8136 17.3082 17.6057 17.5163L17.6057 17.5163C17.0569 18.0652 16.3125 18.3735 15.5365 18.3735H11.3718C10.5959 18.3735 9.85141 18.0652 9.30268 17.5163C9.30266 17.5163 9.30264 17.5163 9.30262 17.5163M15.2452 8.35576L8.59867 15.5629C8.62782 16.257 8.91523 16.9171 9.40871 17.4102L9.30262 17.5163M15.2452 8.35576L15.2437 8.35365H15.1656H13.5741H13.2964L13.2978 8.35576M15.2452 8.35576H13.2978M9.30262 17.5163C8.78237 16.9964 8.47951 16.3006 8.4488 15.5692L8.44854 15.563H8.44867L8.44528 8.50583L8.44521 8.35576H8.59528H13.2978M9.30262 17.5163L13.2978 8.35576M16.5909 16.096L16.591 16.0959C16.7101 15.9024 16.7748 15.6781 16.7748 15.447V10.044H10.1335V15.447C10.1335 15.7754 10.2641 16.0903 10.4963 16.3227L10.4964 16.3228L16.5909 16.096ZM16.5909 16.096C16.5407 16.1776 16.4809 16.2538 16.412 16.3226M16.5909 16.096L16.412 16.3226M16.412 16.3226C16.1798 16.5548 15.8648 16.6853 15.5365 16.6853M16.412 16.3226L15.5365 16.6853M15.5365 16.6853H11.3718M15.5365 16.6853H11.3718M11.3718 16.6853C11.1468 16.6853 10.9286 16.6242 10.7387 16.5113L11.3718 16.6853ZM20.6828 12.9581C20.9431 12.6976 21.0895 12.3446 21.0895 11.9764V9.89401C21.0895 9.52577 20.9431 9.17277 20.6828 8.91231C20.4225 8.65201 20.0693 8.50576 19.7013 8.50576L20.6828 12.9581ZM7.05703 21V21.15H7.20703H19.7013H19.8513V21V19.6118V19.4618H19.7013H7.20703H7.05703V19.6118V21ZM19.5513 10.044V11.8264H18.463V10.044H19.5513Z" stroke="#111111" stroke-width="0.3"/>
</svg>
