<svg width="24" height="22" viewBox="0 0 24 22" fill="none" xmlns="http://www.w3.org/2000/svg">
<path d="M2 4L9 11H2V14H12L19 21L20.25 19.75L3.25 2.75L2 4ZM20.5 11H22V14H20.5V11ZM18 11H19.5V14H18V11ZM18.85 2.88C19.47 2.27 19.85 1.43 19.85 0.5H18.35C18.35 1.5 17.5 2.35 16.5 2.35V3.85C18.74 3.85 20.5 5.68 20.5 7.92V10H22V7.92C22 5.69 20.72 3.77 18.85 2.88ZM14.5 6.7H16.03C17.08 6.7 18 7.44 18 8.75V10H19.5V8.41C19.5 6.61 17.9 5.25 16.03 5.25H14.5C13.5 5.25 12.65 4.27 12.65 3.25C12.65 2.23 13.5 1.5 14.5 1.5V0C13.6115 0 12.7594 0.352946 12.1312 0.981192C11.5029 1.60944 11.15 2.46152 11.15 3.35C11.15 4.23848 11.5029 5.09056 12.1312 5.71881C12.7594 6.34705 13.6115 6.7 14.5 6.7ZM17 13.93V11H14.07L17 13.93Z"/>
</svg>
