<svg width="24" height="22" viewBox="0 0 24 22" fill="none" xmlns="http://www.w3.org/2000/svg">
<path fill-rule="evenodd" clip-rule="evenodd" d="M2 1.75C2 0.783502 2.7835 0 3.75 0C4.7165 0 5.5 0.783502 5.5 1.75V6.75C5.5 6.88807 5.61193 7 5.75 7C5.88807 7 6 6.88807 6 6.75V1.75C6 0.783502 6.7835 0 7.75 0C8.7165 0 9.5 0.783502 9.5 1.75V6.75C9.5 6.88807 9.61193 7 9.75 7C9.88807 7 10 6.88807 10 6.75V1.75C10 0.783502 10.7835 0 11.75 0C12.7165 0 13.5 0.783502 13.5 1.75V7.75C13.5 10.03 11.8877 11.9152 9.75 12.3722V21.5H5.75V12.3722C3.61232 11.9152 2 10.03 2 7.75V1.75ZM3.75 1.5C3.61193 1.5 3.5 1.61193 3.5 1.75V7.75C3.5 9.46588 4.84391 10.8655 6.54656 10.9714L7.25 11.0152V20H8.25V11.0152L8.95344 10.9714C10.6561 10.8655 12 9.46588 12 7.75V1.75C12 1.61193 11.8881 1.5 11.75 1.5C11.6119 1.5 11.5 1.61193 11.5 1.75V6.75C11.5 7.7165 10.7165 8.5 9.75 8.5C8.7835 8.5 8 7.7165 8 6.75V1.75C8 1.61193 7.88807 1.5 7.75 1.5C7.61193 1.5 7.5 1.61193 7.5 1.75V6.75C7.5 7.7165 6.7165 8.5 5.75 8.5C4.7835 8.5 4 7.7165 4 6.75V1.75C4 1.61193 3.88807 1.5 3.75 1.5ZM16.7254 1.52189C17.7479 0.640547 19.1672 0 20.75 0H21.5V21.5H17.5V13.5H15V4.75C15 3.57551 15.7232 2.38562 16.7254 1.52189ZM17.7046 2.65811C16.8968 3.35438 16.5 4.16449 16.5 4.75V12H19V20H20V1.56474C19.118 1.71724 18.3214 2.12658 17.7046 2.65811Z"/>
</svg>
