<svg width="67" height="89" viewBox="0 0 67 89" fill="none" xmlns="http://www.w3.org/2000/svg">
<path d="M34.25 30.5C39.8638 57.3684 31.1282 78.0872 27.1043 85.7663C26.3631 87.1809 27.3881 89 28.9851 89H37.2958C38.1628 89 38.9351 88.4344 39.1922 87.6065C47.0689 62.2411 43.2097 44.2367 41 35M54.3027 22.9117C53.0311 22.5912 52.1897 24.0484 52.835 25.19V25.19C58.2136 33.714 59.0852 43.7991 56.0491 52.6482C55.3139 54.791 52.3865 53.5389 52.4114 51.2736C52.4763 45.3524 50.9066 39.3436 47.525 33.965C47.165 33.38 46.76 32.885 46.4 32.345C43.9304 28.8709 40.8379 26.0586 37.4484 23.9082C36.9639 23.6008 36.3651 23.532 35.8237 23.7219C23.3097 28.1127 14.36 39.9972 14.36 53.99V53.99C14.36 55.7945 11.9613 56.6515 11.3926 54.939C10.3384 51.7641 9.77 48.3734 9.77 44.855C9.77 36.2073 13.2005 28.3721 18.7572 22.6044C20.0414 21.2715 19.2679 18.9396 17.424 19.0996C12.5715 19.5205 7.69103 21.024 3.29 23.75V23.75C1.79769 24.7368 -0.174275 23.1897 0.961703 21.8075C3.08553 19.2234 5.64133 16.9312 8.6 15.065C13.9076 11.7389 19.7717 10.1656 25.6234 10.1702C27.3974 10.1716 28.5413 8.14655 27.3121 6.86747C26.1791 5.68846 24.9386 4.5603 23.585 3.5V3.5C22.1605 2.46843 22.8971 0.0906389 24.5659 0.646251C27.7616 1.71027 30.8367 3.29651 33.665 5.435C36.1897 7.31853 38.2505 9.55895 39.9427 11.9338C40.3307 12.4784 40.951 12.7938 41.6194 12.7737C41.6969 12.7714 41.7752 12.77 41.855 12.77C51.7997 12.77 60.6927 17.2985 66.5777 24.4138C68.0274 26.1666 65.3838 28.0205 63.4563 26.8127C60.6644 25.0632 57.5841 23.7387 54.3027 22.9117Z" fill="white"/>
</svg>
