<svg width="16" height="16" viewBox="0 0 16 16" fill="none" xmlns="http://www.w3.org/2000/svg">
<path d="M8.00033 2.66669C8.70757 2.66669 9.38585 2.94764 9.88594 3.44774C10.386 3.94783 10.667 4.62611 10.667 5.33335C10.667 6.0406 10.386 6.71887 9.88594 7.21897C9.38585 7.71907 8.70757 8.00002 8.00033 8.00002C7.29308 8.00002 6.6148 7.71907 6.11471 7.21897C5.61461 6.71887 5.33366 6.0406 5.33366 5.33335C5.33366 4.62611 5.61461 3.94783 6.11471 3.44774C6.6148 2.94764 7.29308 2.66669 8.00033 2.66669ZM8.00033 9.33335C10.947 9.33335 13.3337 10.5267 13.3337 12V13.3334H2.66699V12C2.66699 10.5267 5.05366 9.33335 8.00033 9.33335Z" fill="#FD2A7A"/>
</svg>
