<svg width="30" height="24" viewBox="0 0 30 24" fill="none" xmlns="http://www.w3.org/2000/svg">
<path d="M0 3H30V21.3871H0V3Z" fill="white"/>
<path d="M0 3H30V5.41935H0V3ZM0 7.35484H30V9.29032H0V7.35484ZM0 11.2258H30V13.1613H0V11.2258Z" fill="#D22F27"/>
<path d="M0 3H15.4839V13.1613H0V3Z" fill="#1E50A0"/>
<path d="M0 15.0967H30V17.0322H0V15.0967Z" fill="#D22F27"/>
<path d="M2.17783 6.26606C2.64549 6.26606 3.0246 5.88694 3.0246 5.41928C3.0246 4.95162 2.64549 4.57251 2.17783 4.57251C1.71017 4.57251 1.33105 4.95162 1.33105 5.41928C1.33105 5.88694 1.71017 6.26606 2.17783 6.26606Z" fill="white"/>
<path d="M6.04795 6.26606C6.51561 6.26606 6.89472 5.88694 6.89472 5.41928C6.89472 4.95162 6.51561 4.57251 6.04795 4.57251C5.58029 4.57251 5.20117 4.95162 5.20117 5.41928C5.20117 5.88694 5.58029 6.26606 6.04795 6.26606Z" fill="white"/>
<path d="M9.91904 6.26606C10.3867 6.26606 10.7658 5.88694 10.7658 5.41928C10.7658 4.95162 10.3867 4.57251 9.91904 4.57251C9.45138 4.57251 9.07227 4.95162 9.07227 5.41928C9.07227 5.88694 9.45138 6.26606 9.91904 6.26606Z" fill="white"/>
<path d="M13.7901 6.26606C14.2578 6.26606 14.6369 5.88694 14.6369 5.41928C14.6369 4.95162 14.2578 4.57251 13.7901 4.57251C13.3225 4.57251 12.9434 4.95162 12.9434 5.41928C12.9434 5.88694 13.3225 6.26606 13.7901 6.26606Z" fill="white"/>
<path d="M11.8546 8.20161C12.3222 8.20161 12.7014 7.82249 12.7014 7.35483C12.7014 6.88717 12.3222 6.50806 11.8546 6.50806C11.3869 6.50806 11.0078 6.88717 11.0078 7.35483C11.0078 7.82249 11.3869 8.20161 11.8546 8.20161Z" fill="white"/>
<path d="M7.98349 8.20161C8.45115 8.20161 8.83027 7.82249 8.83027 7.35483C8.83027 6.88717 8.45115 6.50806 7.98349 6.50806C7.51583 6.50806 7.13672 6.88717 7.13672 7.35483C7.13672 7.82249 7.51583 8.20161 7.98349 8.20161Z" fill="white"/>
<path d="M4.11338 8.20161C4.58104 8.20161 4.96015 7.82249 4.96015 7.35483C4.96015 6.88717 4.58104 6.50806 4.11338 6.50806C3.64572 6.50806 3.2666 6.88717 3.2666 7.35483C3.2666 7.82249 3.64572 8.20161 4.11338 8.20161Z" fill="white"/>
<path d="M2.17783 10.1372C2.64549 10.1372 3.0246 9.75804 3.0246 9.29038C3.0246 8.82272 2.64549 8.4436 2.17783 8.4436C1.71017 8.4436 1.33105 8.82272 1.33105 9.29038C1.33105 9.75804 1.71017 10.1372 2.17783 10.1372Z" fill="white"/>
<path d="M6.04795 10.1372C6.51561 10.1372 6.89472 9.75804 6.89472 9.29038C6.89472 8.82272 6.51561 8.4436 6.04795 8.4436C5.58029 8.4436 5.20117 8.82272 5.20117 9.29038C5.20117 9.75804 5.58029 10.1372 6.04795 10.1372Z" fill="white"/>
<path d="M9.91904 10.1372C10.3867 10.1372 10.7658 9.75804 10.7658 9.29038C10.7658 8.82272 10.3867 8.4436 9.91904 8.4436C9.45138 8.4436 9.07227 8.82272 9.07227 9.29038C9.07227 9.75804 9.45138 10.1372 9.91904 10.1372Z" fill="white"/>
<path d="M13.7901 10.1372C14.2578 10.1372 14.6369 9.75804 14.6369 9.29038C14.6369 8.82272 14.2578 8.4436 13.7901 8.4436C13.3225 8.4436 12.9434 8.82272 12.9434 9.29038C12.9434 9.75804 13.3225 10.1372 13.7901 10.1372Z" fill="white"/>
<path d="M11.8546 12.0727C12.3222 12.0727 12.7014 11.6936 12.7014 11.2259C12.7014 10.7583 12.3222 10.3792 11.8546 10.3792C11.3869 10.3792 11.0078 10.7583 11.0078 11.2259C11.0078 11.6936 11.3869 12.0727 11.8546 12.0727Z" fill="white"/>
<path d="M7.98349 12.0727C8.45115 12.0727 8.83027 11.6936 8.83027 11.2259C8.83027 10.7583 8.45115 10.3792 7.98349 10.3792C7.51583 10.3792 7.13672 10.7583 7.13672 11.2259C7.13672 11.6936 7.51583 12.0727 7.98349 12.0727Z" fill="white"/>
<path d="M4.11338 12.0727C4.58104 12.0727 4.96015 11.6936 4.96015 11.2259C4.96015 10.7583 4.58104 10.3792 4.11338 10.3792C3.64572 10.3792 3.2666 10.7583 3.2666 11.2259C3.2666 11.6936 3.64572 12.0727 4.11338 12.0727Z" fill="white"/>
<path d="M0 18.9678H30V21.3871H0V18.9678Z" fill="#D22F27"/>
</svg>
