<svg width="30" height="30" viewBox="0 0 30 30" fill="none" xmlns="http://www.w3.org/2000/svg">
<path d="M13.5 22.5H16.5V13.5H13.5V22.5ZM15 10.5C15.425 10.5 15.7815 10.356 16.0695 10.068C16.3575 9.78 16.501 9.424 16.5 9C16.5 8.575 16.356 8.2185 16.068 7.9305C15.78 7.6425 15.424 7.499 15 7.5C14.575 7.5 14.2185 7.644 13.9305 7.932C13.6425 8.22 13.499 8.576 13.5 9C13.5 9.425 13.644 9.7815 13.932 10.0695C14.22 10.3575 14.576 10.501 15 10.5ZM15 30C12.925 30 10.975 29.606 9.15 28.818C7.325 28.03 5.7375 26.9615 4.3875 25.6125C3.0375 24.2625 1.969 22.675 1.182 20.85C0.395 19.025 0.001 17.075 0 15C0 12.925 0.394 10.975 1.182 9.15C1.97 7.325 3.0385 5.7375 4.3875 4.3875C5.7375 3.0375 7.325 1.969 9.15 1.182C10.975 0.395 12.925 0.001 15 0C17.075 0 19.025 0.394 20.85 1.182C22.675 1.97 24.2625 3.0385 25.6125 4.3875C26.9625 5.7375 28.0315 7.325 28.8195 9.15C29.6075 10.975 30.001 12.925 30 15C30 17.075 29.606 19.025 28.818 20.85C28.03 22.675 26.9615 24.2625 25.6125 25.6125C24.2625 26.9625 22.675 28.0315 20.85 28.8195C19.025 29.6075 17.075 30.001 15 30Z" fill="#5A3825"/>
</svg>
