<svg width="16" height="16" viewBox="0 0 16 16" fill="none" xmlns="http://www.w3.org/2000/svg">
<path d="M10.0003 9.33335C8.22033 9.33335 4.66699 10.22 4.66699 12V13.3334H15.3337V12C15.3337 10.22 11.7803 9.33335 10.0003 9.33335ZM4.00033 6.66669V4.66669H2.66699V6.66669H0.666992V8.00002H2.66699V10H4.00033V8.00002H6.00033V6.66669M10.0003 8.00002C10.7076 8.00002 11.3858 7.71907 11.8859 7.21897C12.386 6.71887 12.667 6.0406 12.667 5.33335C12.667 4.62611 12.386 3.94783 11.8859 3.44774C11.3858 2.94764 10.7076 2.66669 10.0003 2.66669C9.29308 2.66669 8.6148 2.94764 8.11471 3.44774C7.61461 3.94783 7.33366 4.62611 7.33366 5.33335C7.33366 6.0406 7.61461 6.71887 8.11471 7.21897C8.6148 7.71907 9.29308 8.00002 10.0003 8.00002Z" fill="#FD2A7A"/>
</svg>
