<svg width="41" height="41" viewBox="0 0 41 41" fill="none" xmlns="http://www.w3.org/2000/svg">
<path d="M10 15C10 14.4477 10.4477 14 11 14H29C29.5523 14 30 14.4477 30 15V15.2222C30 15.7745 29.5523 16.2222 29 16.2222H11C10.4477 16.2222 10 15.7745 10 15.2222V15ZM10 20.5556C10 20.0033 10.4477 19.5556 11 19.5556H29C29.5523 19.5556 30 20.0033 30 20.5556V20.7778C30 21.3301 29.5523 21.7778 29 21.7778H11C10.4477 21.7778 10 21.3301 10 20.7778V20.5556ZM10 26.1111C10 25.5588 10.4477 25.1111 11 25.1111H29C29.5523 25.1111 30 25.5588 30 26.1111V26.3333C30 26.8856 29.5523 27.3333 29 27.3333H11C10.4477 27.3333 10 26.8856 10 26.3333V26.1111Z"/>
</svg>
