<svg width="74" height="50" viewBox="0 0 74 50" fill="none" xmlns="http://www.w3.org/2000/svg">
<path opacity="0.3" d="M16.4818 18.1818C19.6283 18.1818 22.7042 19.1149 25.3204 20.863C27.9367 22.6111 29.9758 25.0958 31.1799 28.0028C32.384 30.9098 32.6991 34.1086 32.0852 37.1946C31.4714 40.2807 29.9562 43.1154 27.7312 45.3403C25.5063 47.5653 22.6716 49.0805 19.5855 49.6943C16.4995 50.3082 13.3007 49.9931 10.3937 48.789C7.48666 47.5849 5.002 45.5458 3.25389 42.9295C1.50578 40.3133 0.572727 37.2374 0.572727 34.0909L0.5 31.8182C0.5 23.3795 3.85226 15.2864 9.81933 9.31933C15.7864 3.35226 23.8795 0 32.3182 0V9.09091C29.3323 9.08288 26.3744 9.66686 23.6156 10.8091C20.8568 11.9513 18.3518 13.6291 16.2454 15.7455C15.4268 16.5626 14.6716 17.4409 13.9864 18.3727C14.8 18.2455 15.6318 18.1773 16.4773 18.1773L16.4818 18.1818ZM57.3909 18.1818C60.5374 18.1818 63.6133 19.1149 66.2295 20.863C68.8457 22.6111 70.8848 25.0958 72.089 28.0028C73.2931 30.9098 73.6081 34.1086 72.9943 37.1946C72.3804 40.2807 70.8652 43.1154 68.6403 45.3403C66.4154 47.5653 63.5807 49.0805 60.4946 49.6943C57.4085 50.3082 54.2098 49.9931 51.3027 48.789C48.3957 47.5849 45.9111 45.5458 44.163 42.9295C42.4149 40.3133 41.4818 37.2374 41.4818 34.0909L41.4091 31.8182C41.4091 23.3795 44.7613 15.2864 50.7284 9.31933C56.6955 3.35226 64.7885 0 73.2272 0V9.09091C70.2413 9.08288 67.2835 9.66686 64.5247 10.8091C61.7659 11.9513 59.2609 13.6291 57.1545 15.7455C56.3359 16.5626 55.5807 17.4409 54.8954 18.3727C55.7091 18.2455 56.5409 18.1818 57.3909 18.1818Z" fill="#FD2A7A"/>
</svg>
