<svg class="footer-social-icon" width="40" height="40" viewBox="0 0 40 40" fill="none" xmlns="http://www.w3.org/2000/svg">
<path d="M26.6667 13.3333C28.9667 15.6 29.8333 18.7667 29.2889 21.7222C29.7444 22.5222 30 23.4556 30 24.4444C30 25.9179 29.4147 27.331 28.3728 28.3728C27.331 29.4147 25.9179 30 24.4444 30C23.4556 30 22.5222 29.7444 21.7222 29.2889C18.7667 29.8333 15.6 28.9667 13.3333 26.6667C11.0333 24.4 10.1667 21.2333 10.7111 18.2778C10.2556 17.4778 10 16.5444 10 15.5556C10 14.0821 10.5853 12.669 11.6272 11.6272C12.669 10.5853 14.0821 10 15.5556 10C16.5444 10 17.4778 10.2556 18.2778 10.7111C21.2333 10.1667 24.4 11.0333 26.6667 13.3333ZM20.0444 25.7333C23.2333 25.7333 24.8222 24.2 24.8222 22.1333C24.8222 20.8111 24.2 19.4 21.7889 18.8556L19.5778 18.3667C18.7333 18.1778 17.7778 17.9222 17.7778 17.1333C17.7778 16.3333 18.4444 15.7778 19.6667 15.7778C22.1444 15.7778 21.9111 17.4778 23.1444 17.4778C23.7889 17.4778 24.3444 17.1 24.3444 16.4444C24.3444 14.9222 21.9111 13.7778 19.8444 13.7778C17.6111 13.7778 15.2222 14.7333 15.2222 17.2667C15.2222 18.4889 15.6556 19.7889 18.0556 20.3889L21.0444 21.1444C21.9444 21.3667 22.1667 21.8667 22.1667 22.3333C22.1667 23.0889 21.4111 23.8333 20.0444 23.8333C17.3667 23.8333 17.7333 21.7778 16.3 21.7778C15.6556 21.7778 15.1889 22.2222 15.1889 22.8556C15.1889 24.0889 16.6667 25.7333 20.0444 25.7333Z"/>
</svg>
