<svg width="50" height="48" viewBox="0 0 50 48" fill="none" xmlns="http://www.w3.org/2000/svg">
<path opacity="0.05" fill-rule="evenodd" clip-rule="evenodd" d="M9.1817 37.744V47.4203L22.8349 37.7577H40.3028C42.8747 37.7577 45.3412 36.7361 47.1598 34.9175C48.9783 33.0989 50 30.6324 50 28.0606V9.69716C50 7.12532 48.9783 4.6588 47.1598 2.84023C45.3412 1.02166 42.8747 0 40.3028 0H9.69717C7.12532 0 4.65881 1.02166 2.84023 2.84023C1.02166 4.6588 0 7.12532 0 9.69716V28.0606C0 30.6324 1.02166 33.0989 2.84023 34.9175C4.53694 36.6142 6.79765 37.6172 9.1817 37.744ZM40.3028 34.6649H21.8514L12.2745 41.4402V34.6649H9.69717C7.94557 34.6649 6.26572 33.9691 5.02716 32.7306C3.7886 31.492 3.09278 29.8122 3.09278 28.0606V9.69716C3.09278 7.94557 3.7886 6.26572 5.02716 5.02716C6.26572 3.7886 7.94557 3.09278 9.69717 3.09278H40.3028C42.0544 3.09278 43.7343 3.7886 44.9728 5.02716C46.2114 6.26572 46.9072 7.94557 46.9072 9.69716V28.0606C46.9072 29.8122 46.2114 31.492 44.9728 32.7306C43.7343 33.9691 42.0544 34.6649 40.3028 34.6649Z" fill="black"/>
</svg>
