<svg class="footer-social-icon" width="40" height="40" viewBox="0 0 40 40" fill="none" xmlns="http://www.w3.org/2000/svg">
<path fill-rule="evenodd" clip-rule="evenodd" d="M11 11.0053C11 11.0095 11.1468 11.225 11.3621 11.5367C11.4084 11.6037 11.9235 12.353 12.8883 13.7569C13.2871 14.3372 13.7028 14.9421 13.8121 15.1011C13.9213 15.26 14.2433 15.7286 14.5277 16.1424C14.8119 16.5562 15.1396 17.033 15.2559 17.202C15.3721 17.3711 15.8077 18.0048 16.2238 18.6104C16.64 19.2158 17.0698 19.8414 17.1791 20.0003C17.3739 20.2837 17.6336 20.6617 17.791 20.8914L17.8705 21.0073L17.8271 21.0566C17.8032 21.0836 17.6684 21.24 17.5275 21.404C17.1659 21.825 16.8995 22.135 16.7387 22.3215C16.6627 22.4098 16.5099 22.5873 16.3993 22.716C16.2886 22.8447 16.1358 23.0222 16.0596 23.1105C15.9835 23.1988 15.8164 23.3928 15.6885 23.5417C15.4113 23.8643 15.1068 24.2183 14.8205 24.5509C14.7054 24.6847 14.4976 24.9262 14.3587 25.0876C14.2197 25.2491 14.0261 25.4741 13.9282 25.5876C13.8304 25.7012 13.6421 25.92 13.5098 26.0739C13.0958 26.5554 12.8077 26.8902 12.6927 27.0235C12.6316 27.0941 12.4663 27.2861 12.3253 27.4502C12.1842 27.6143 11.9821 27.8492 11.8762 27.9724C11.7702 28.0955 11.5782 28.3185 11.4496 28.4681C11.3209 28.6176 11.1671 28.7961 11.1078 28.8648C11.0485 28.9335 11 28.9922 11 28.9953C11 28.9983 11.3518 28.9996 11.7818 28.9983L12.5635 28.996L12.8241 28.6932C12.9673 28.5267 13.1681 28.2935 13.2702 28.1749C13.3723 28.0563 13.5605 27.8375 13.6885 27.6887C13.8165 27.5398 13.9959 27.3313 14.0871 27.2253C14.1784 27.1193 14.3684 26.8984 14.5094 26.7345C14.6504 26.5704 14.8458 26.3434 14.9436 26.2299C15.0414 26.1163 15.2332 25.8934 15.3699 25.7345C15.7554 25.2863 16.1976 24.7723 16.4276 24.505C16.5426 24.3713 16.7504 24.1298 16.8892 23.9683C17.028 23.8068 17.1791 23.6314 17.2249 23.5784C17.3232 23.465 17.54 23.213 17.9314 22.7572C18.2856 22.345 18.4274 22.1803 18.5058 22.0908L18.5672 22.0206L18.7135 22.233C18.8398 22.4164 19.3705 23.1884 19.5503 23.4503C19.9053 23.9676 20.177 24.3629 20.3443 24.6061C20.4553 24.7673 20.6866 25.1037 20.8581 25.3536C21.0297 25.6034 21.2609 25.94 21.3719 26.1013C21.4829 26.2627 21.9763 26.9809 22.4683 27.6974L23.3628 29L25.9906 28.998C28.2237 28.9963 28.619 28.9941 28.6226 28.9833C28.6249 28.9762 28.6229 28.9729 28.6182 28.9759C28.6134 28.9788 28.4962 28.8163 28.3578 28.6146C28.135 28.2902 26.2911 25.6073 25.7666 24.8445C25.6572 24.6856 25.4261 24.3491 25.2528 24.0968C25.0795 23.8445 24.8781 23.5514 24.8051 23.4454C24.6874 23.2743 24.1163 22.4431 23.9069 22.138C23.8636 22.0749 23.7557 21.918 23.6672 21.7893C23.5787 21.6607 23.417 21.4253 23.3077 21.2664C23.1985 21.1074 22.7685 20.482 22.3522 19.8765C21.4446 18.5562 21.5053 18.6449 21.4993 18.6292C21.4964 18.6215 21.5634 18.5364 21.6671 18.416C21.7621 18.3058 21.9498 18.0877 22.0842 17.9313C22.2186 17.775 22.4247 17.5356 22.5421 17.3993C22.6595 17.2631 22.8638 17.0256 22.996 16.8717C23.3145 16.5011 23.4479 16.346 23.647 16.1149C24.0207 15.6811 24.2388 15.4275 24.8036 14.7708C24.936 14.6168 25.1242 14.3981 25.222 14.2845C25.3198 14.171 25.5028 13.9583 25.6286 13.812C25.7544 13.6657 25.9073 13.4881 25.9683 13.4175C26.0293 13.3469 26.2283 13.1157 26.4105 12.9037C26.8744 12.3639 27.193 11.9939 27.3538 11.8079C27.4294 11.7203 27.5182 11.6168 27.551 11.5779C27.5838 11.539 27.685 11.4214 27.7758 11.3164C27.8666 11.2115 27.9649 11.0974 27.9941 11.0628L28.0473 11H27.2635H26.4796L26.4026 11.0895C26.3602 11.1387 26.2103 11.3131 26.0694 11.4771C25.9285 11.6411 25.7633 11.8331 25.7024 11.9037C25.6414 11.9743 25.501 12.1374 25.3904 12.2661C25.2797 12.3948 25.1269 12.5723 25.0507 12.6606C24.9746 12.7489 24.8006 12.9512 24.664 13.1102C24.2766 13.5612 24.1851 13.6675 23.9777 13.9084C23.6613 14.2757 23.418 14.5586 22.8451 15.2249C22.7366 15.351 22.598 15.5121 22.5371 15.5827C22.3999 15.7417 22.0965 16.0944 21.8307 16.4039C21.6023 16.6699 21.5208 16.7642 21.5139 16.7708C21.5112 16.7734 21.362 16.9467 21.1822 17.1562C21.0024 17.3656 20.8414 17.553 20.8244 17.5725L20.7933 17.6081L20.4408 17.0955C20.2469 16.8134 20.0587 16.5394 20.0224 16.4864C19.9861 16.4334 19.7478 16.0867 19.4928 15.7158C18.9632 14.9454 18.8303 14.7519 18.1118 13.7065C17.8257 13.2902 17.4867 12.7968 17.3584 12.6102C17.2302 12.4234 17.1081 12.2459 17.0871 12.2156C17.0278 12.13 16.4159 11.2382 16.3301 11.1124L16.2535 11H13.6267C12.182 11 11 11.0024 11 11.0053ZM13.134 12.1858C13.141 12.1978 13.258 12.366 13.5539 12.789C13.651 12.9278 13.8977 13.2808 14.1023 13.5735C14.5442 14.2057 15.4125 15.4476 16.046 16.3534C16.861 17.5188 17.5477 18.5007 17.8489 18.9314C18.0112 19.1636 18.3648 19.6693 18.6347 20.0554C18.9046 20.4414 19.2611 20.9513 19.4268 21.1884C19.7061 21.5879 20.0289 22.0495 21.1334 23.6288C21.3663 23.9619 21.7502 24.511 21.9865 24.8491C22.5556 25.6631 23.3362 26.7795 23.7573 27.3813L24.0975 27.8675L25.283 27.8699C25.9349 27.8711 26.4684 27.8702 26.4684 27.8678C26.4684 27.8654 26.3391 27.6785 26.181 27.4526C26.0229 27.2267 25.7016 26.7672 25.467 26.4317C25.2323 26.0961 24.834 25.5264 24.5817 25.1656C24.3294 24.8048 23.9743 24.297 23.7926 24.0372C23.1669 23.1422 22.6012 22.3331 22.0155 21.4958C21.6927 21.0341 21.3089 20.485 21.1627 20.2756C21.0165 20.0662 20.8691 19.8555 20.8352 19.8076C20.8013 19.7597 20.7303 19.6585 20.6776 19.5828C20.6249 19.5072 20.5673 19.4246 20.5495 19.3994C20.5318 19.3741 20.4106 19.2007 20.2801 19.014C20.1496 18.8273 19.822 18.3587 19.5521 17.9727C18.8448 16.9611 18.4001 16.3252 17.8681 15.5644C17.6106 15.196 17.15 14.5373 16.8445 14.1005C16.5391 13.6638 16.1116 13.052 15.8947 12.7409L15.5001 12.1753L14.3138 12.1748C13.3672 12.1744 13.1288 12.1767 13.134 12.1858Z"/>
</svg>
